<svg width="86" height="61" viewBox="0 0 86 61" fill="none" xmlns="http://www.w3.org/2000/svg">
<path d="M61.0048 39.6643C59.256 38.1928 58.4207 36.2635 58.0738 34.0439C57.8735 32.7545 57.8442 31.465 57.9175 30.1805C58.0006 28.7336 58.2497 27.2965 58.5721 25.8791C58.6112 25.7069 58.704 25.5592 58.8408 25.446C59.3683 25.0228 59.9008 24.6389 60.5749 24.4519C61.3516 24.2353 62.6412 25.0179 62.4019 26.14C62.2211 26.9766 62.0209 27.8133 61.8841 28.6598C61.5372 30.8253 61.5421 32.9661 62.5924 34.979C63.4228 36.5736 64.815 37.4102 66.4955 37.8236C67.3943 38.0451 68.3175 38.1583 69.2457 38.1091C71.5416 37.9959 73.7105 37.4545 75.5082 35.9338C77.1935 34.5115 78.1704 32.6315 78.7957 30.5447C79.1963 29.2061 79.3233 27.8231 79.5431 26.4549C79.6017 26.0809 79.4649 25.8841 79.0253 25.889C76.3337 25.9037 73.6421 25.8693 70.9554 25.9136C70.1445 25.9283 69.7488 25.2689 69.9003 24.5257C70.1933 23.0591 70.4425 21.5876 70.6965 20.1111C70.7502 19.8011 70.4816 19.9093 70.3399 19.9093C69.0258 19.8995 67.7118 19.8946 66.3977 19.9093C64.9616 19.9241 63.5303 19.7518 62.0941 19.8011C61.6936 19.8158 61.2344 19.8257 60.8973 19.6534C60.4088 19.4024 60.2085 18.9004 60.2769 18.3246C60.5798 15.8048 61.122 13.344 62.0599 10.9768C62.651 9.48064 63.3886 8.06324 64.3217 6.75904C66.3391 3.93409 68.9917 2.02455 72.4013 1.22726C73.9889 0.858147 75.6058 0.749873 77.2228 0.863068C78.8641 0.976263 80.4761 1.31585 81.883 2.25094C83.7393 3.48131 84.7846 5.25306 85.195 7.40868C85.4148 8.56524 85.5565 9.74148 85.4783 10.9226C85.3708 12.5615 85.1803 14.1905 84.7944 15.79C84.5892 16.6414 84.3645 17.483 84.0959 18.3148C83.7832 19.2695 83.285 19.6288 82.2933 19.7272C81.3994 19.8158 80.4957 19.87 79.6066 19.806C78.4538 19.7223 77.3058 19.7371 76.1579 19.7223C75.7524 19.7174 75.0734 18.9053 74.9952 18.4378C74.8633 17.6405 75.2932 17.1631 75.8599 16.7399C76.2653 16.4347 76.7098 16.3462 77.2228 16.3412C78.361 16.3314 79.4894 16.4397 80.6227 16.4495C81.4971 16.4594 81.7804 16.2576 82.0344 15.3815C82.4008 14.1216 82.6597 12.842 82.8062 11.5329C82.9381 10.3813 82.8356 9.27886 82.5229 8.1912C81.8634 5.88794 80.2319 4.57881 77.9995 3.9587C77.0225 3.68802 76.0064 3.50592 74.9855 3.57482C72.5772 3.72739 70.3497 4.39672 68.4299 5.93223C66.6078 7.38408 65.3963 9.26902 64.5366 11.3951C64.1556 12.3351 63.799 13.2899 63.6036 14.2939C63.5108 14.7811 63.4179 15.2733 63.3642 15.7703C63.2958 16.3855 63.6475 16.6611 64.5268 16.735C64.6392 16.7448 64.7466 16.735 64.859 16.735C67.6434 16.735 70.4278 16.735 73.2171 16.735C73.4907 16.735 73.7496 16.7793 73.9938 16.8875C74.2723 17.0155 74.3993 17.2074 74.3309 17.5618C74.0427 18.9841 73.7935 20.4113 73.5298 21.8336C73.4809 22.0896 73.5981 22.1634 73.8424 22.1585C74.4237 22.1437 75.005 22.0945 75.5814 22.0748C77.1641 22.0256 78.7469 22.0256 80.3296 22.0699C81.375 22.0945 82.3129 22.4439 82.8649 23.4135C83.2605 24.1074 83.2508 24.8751 83.1091 25.6478C82.9235 26.6617 82.8697 27.6902 82.6401 28.6992C82.1712 30.7859 81.4629 32.7742 80.4175 34.6542C79.5968 36.1405 78.4977 37.3758 77.2765 38.5176C76.6463 39.1082 75.9136 39.5659 75.1662 39.999C75.0734 40.0531 74.9904 40.1318 74.9073 40.1958C74.2185 40.4025 73.5786 40.7421 72.8752 40.9291C72.2743 41.0915 71.6442 41.1654 71.0824 41.4557C69.5192 41.751 67.9365 41.692 66.3538 41.6772C65.9239 41.6772 65.4989 41.5689 65.069 41.5099C64.9958 41.3819 64.8639 41.3917 64.7418 41.3671C63.6378 41.1309 62.6168 40.6781 61.6301 40.1466C61.4054 40.0088 61.3028 39.7037 60.9999 39.6741L61.0048 39.6643Z" fill="#183149"/>
<path d="M9.3564 18.3345C9.34174 18.0934 9.52248 17.8817 9.4541 17.6307C9.61041 17.2813 9.64949 16.9073 9.63972 16.5283C9.67392 16.3216 9.70811 16.1149 9.74231 15.9033C9.90839 15.5293 9.98167 15.1306 10.0061 14.7221C10.0452 14.5203 10.0794 14.3136 10.1184 14.1119C10.3578 13.7132 10.4946 13.285 10.4946 12.8126C10.519 12.6748 10.646 12.5567 10.5972 12.3992C10.9489 12.0005 11.0466 11.5035 11.1589 11.0064C11.2127 10.8686 11.2615 10.7308 11.3153 10.593C11.6474 10.1451 11.8624 9.63821 12.0285 9.1116C12.048 9.06731 12.0626 9.02794 12.0822 8.98857C12.4925 8.52594 12.7368 7.96489 13.0006 7.4186C13.0836 7.27096 13.2448 7.17253 13.2595 6.98551C13.8457 6.46383 14.3146 5.84372 14.7445 5.19408L14.7347 5.21376C15.5163 4.55428 16.2979 3.89972 17.0795 3.24516C18.5938 2.2264 20.2498 1.562 22.0377 1.23226C23.3078 0.996024 24.5876 0.872986 25.8772 0.95173C27.7677 1.06492 29.5947 1.40943 31.1969 2.53154C32.6478 3.54537 33.5124 4.94308 34.0351 6.61639C34.592 8.4029 34.5773 10.2288 34.4698 12.0448C34.3331 14.4022 33.7859 16.7055 32.9848 18.93C32.7308 19.6387 32.0616 19.7175 31.4509 19.811C30.1174 20.0128 28.774 19.934 27.4355 19.8946C26.6979 19.875 25.9554 19.8602 25.2227 19.8061C24.6316 19.7667 24.3776 19.2499 24.1382 18.8021C23.8842 18.3296 23.9819 17.8424 24.3189 17.4437C24.8807 16.7793 25.5451 16.3905 26.483 16.425C27.6163 16.4643 28.7447 16.5972 29.8829 16.5431C30.5082 16.5136 30.8403 16.3167 31.0406 15.7163C31.6903 13.7329 32.086 11.6905 31.8759 9.60375C31.617 7.0741 30.347 5.27282 27.7921 4.29836C26.7419 3.8948 25.6379 3.66841 24.5437 3.68317C22.0084 3.7127 19.6343 4.36726 17.5875 5.9766C15.2427 7.82217 13.9775 10.342 13.0299 13.0882C12.7417 13.9248 12.5902 14.7812 12.4925 15.6425C12.4144 16.3315 12.3216 16.6268 13.2888 16.7596C13.8701 16.8384 14.4514 16.8778 15.0473 16.8679C17.5777 16.8335 20.1081 16.8138 22.6385 16.8679C23.3322 16.8827 23.469 17.2567 23.3371 17.9506C23.0879 19.2499 22.8681 20.559 22.6385 21.8632C22.5799 22.1881 22.7265 22.2619 23.0342 22.257C25.0859 22.2274 27.1376 22.0896 29.1892 22.1585C29.9268 22.1831 30.6449 22.3308 31.2751 22.7639C31.9052 23.197 32.2081 23.8122 32.2276 24.5504C32.2667 25.9383 32.0176 27.2917 31.7538 28.6451C31.3826 30.5743 30.7524 32.4248 29.8487 34.167C28.6812 36.4211 27.0643 38.3011 24.9296 39.7087C24.827 39.7776 24.7097 39.8169 24.5974 39.8711C24.0307 40.1467 23.4641 40.4174 22.9023 40.693C21.7592 41.1654 20.5478 41.3967 19.3656 41.7216C19.1947 41.6773 19.0286 41.7413 18.8625 41.7511C17.5582 41.8446 16.2539 41.9135 14.9496 41.7068C14.7347 41.6724 14.5149 41.6625 14.2951 41.6428C13.8847 41.382 13.4011 41.3771 12.9566 41.2491C11.9014 40.939 10.9977 40.3337 10.0501 39.8022C8.50153 38.4242 7.62225 36.6721 7.24122 34.6641C7.11421 34.0046 7.01651 33.3353 7.01651 32.6611C7.01651 31.2289 6.98232 29.7918 7.2168 28.3695C7.35357 27.5378 7.51478 26.7109 7.7004 25.894C7.76879 25.5938 8.09608 25.4707 8.31591 25.2739C8.76532 24.8752 9.29289 24.6439 9.86443 24.5455C10.7437 24.3929 11.7012 25.3821 11.5058 26.2434C11.115 27.9807 10.6704 29.718 10.773 31.5242C10.8854 33.4682 11.3592 35.2744 12.9126 36.6229C13.7382 37.3414 14.7005 37.745 15.7654 37.9665C18.1884 38.4734 20.5429 38.2568 22.7753 37.2085C25.3643 35.9929 26.8542 33.8176 27.7237 31.1551C28.1927 29.7229 28.4418 28.2514 28.5786 26.7552C28.647 25.9924 28.6421 25.9924 27.8556 25.9924C25.3106 25.9924 22.7607 25.9924 20.2156 25.9924C19.1995 25.9924 18.8136 25.5396 18.9944 24.5504C19.2386 23.2019 19.4926 21.8534 19.7369 20.5049C19.776 20.2884 19.7955 20.1161 19.4389 20.0817C17.5631 19.8996 15.6775 20.1112 13.8066 19.9783C12.6 19.8946 11.3836 20.0029 10.1868 19.811C9.87908 19.7618 9.66903 19.6092 9.53714 19.3287C9.4834 18.994 9.42479 18.6643 9.37105 18.3296L9.3564 18.3345Z" fill="#183149"/>
<path d="M41.9975 41.2934C40.7567 41.382 39.4036 41.2097 38.1189 40.7176C35.7399 39.8071 34.333 38.0846 33.9667 35.5352C33.6882 33.606 34.0204 31.726 34.3917 29.8459C34.7141 28.212 34.9974 26.5682 35.3003 24.9293C35.5299 23.6891 35.7741 22.4489 36.0037 21.2087C36.3114 19.5551 36.6045 17.8965 36.9172 16.2429C37.1761 14.8501 37.4692 13.4622 37.7183 12.0645C37.9186 10.9424 38.1482 9.83014 38.539 8.75233C39.047 7.35462 39.7895 6.10455 40.7421 4.95292C42.232 3.14672 44.1713 2.08859 46.3597 1.45864C47.3905 1.16335 48.47 1.06984 49.5545 1.00586C50.9907 0.922195 52.3878 1.04031 53.7702 1.4045C56.2957 2.07383 57.9175 3.66348 58.5086 6.22759C58.8554 7.73357 58.7675 9.25432 58.5037 10.7652C58.2106 12.4238 57.8833 14.0725 57.5707 15.7261C57.2287 17.5175 56.877 19.3041 56.5448 21.0955C56.1492 23.2413 55.7926 25.3969 55.3773 27.5378C55.0159 29.3735 54.8009 31.2437 54.2245 33.0252C53.4966 35.2596 52.3096 37.2085 50.4338 38.6997C48.7729 40.0187 46.8971 40.7766 44.8161 41.1211C43.9271 41.2688 43.038 41.3032 42.0024 41.2934H41.9975ZM42.6716 38.7736C44.2055 38.8671 45.627 38.5423 46.9411 37.8877C48.9683 36.8837 50.2677 35.2006 50.9662 33.0745C51.6941 30.8745 51.9139 28.5663 52.3829 26.3074C52.7297 24.6439 53.013 22.9706 53.3257 21.3022C53.5797 19.9389 53.8386 18.5757 54.0926 17.2124C54.4052 15.544 54.7423 13.8805 55.0159 12.2023C55.2601 10.716 55.6704 9.2494 55.4408 7.69912C55.1771 5.94706 54.2636 4.5592 52.5294 3.92924C51.0884 3.40756 49.6033 3.3928 48.0988 3.62903C44.8601 4.14579 42.7693 6.0012 41.6556 9.04762C41.0254 10.7751 40.8447 12.601 40.4783 14.3825C40.0435 16.5185 39.6869 18.6741 39.2913 20.8199C38.9933 22.4292 38.6806 24.0336 38.3778 25.638C38.0309 27.459 37.6792 29.28 37.3471 31.1009C37.093 32.4888 36.8586 33.8816 37.2396 35.2891C37.6353 36.7607 38.4559 37.8532 39.9409 38.37C40.8398 38.6801 41.7581 38.8425 42.6716 38.7637V38.7736Z" fill="#183149"/>
<path d="M26.5611 55.6149C26.5611 54.1581 26.5611 52.7014 26.5611 51.2446C26.5611 50.5753 26.566 50.5703 27.2108 50.5703C28.2709 50.5703 29.3309 50.59 30.386 50.5703C32.6526 50.526 34.6652 52.4258 35.056 54.5863C35.3638 56.2842 34.9779 57.8099 33.8299 59.0747C32.9995 59.9852 31.9443 60.5758 30.6645 60.5955C29.497 60.6152 28.3246 60.5758 27.1571 60.6102C26.6588 60.625 26.5465 60.4478 26.5514 59.9803C26.5758 58.5235 26.5611 57.0667 26.5611 55.61V55.6149ZM29.5702 52.9917C29.282 52.9081 29.2625 53.1098 29.2625 53.3707C29.2674 54.7635 29.2772 56.1563 29.2625 57.5441C29.2625 57.9625 29.2283 58.3217 29.8291 58.0855C29.9513 58.0363 30.1125 58.0855 30.2541 58.0757C31.832 57.9378 32.6429 56.5992 32.5256 55.4033C32.3742 53.8727 31.2018 52.9671 29.5751 52.9868L29.5702 52.9917Z" fill="#183149"/>
<path d="M50.0186 55.5855C50.0186 54.0795 50.0381 52.5735 50.0088 51.0724C49.999 50.6344 50.1407 50.5557 50.5413 50.5606C51.9188 50.5852 53.2964 50.6295 54.669 50.5508C55.7242 50.4917 57.0529 51.4268 57.4779 52.4357C58.0543 53.794 57.8491 55.3788 56.4667 56.491C56.242 56.6731 56.2469 56.8011 56.3739 57.0324C56.877 57.9724 57.3704 58.9222 57.8491 59.877C58.1715 60.5168 58.1129 60.5956 57.4144 60.6005C56.8135 60.6005 56.2127 60.5857 55.6118 60.6054C55.3236 60.6152 55.1673 60.5365 55.0354 60.2609C54.5958 59.3553 54.0877 58.4842 53.6676 57.5738C53.4624 57.1308 53.1254 57.2686 52.8274 57.2785C52.4952 57.2932 52.6515 57.5984 52.6467 57.7657C52.6271 58.5433 52.6271 59.316 52.6467 60.0936C52.6564 60.4528 52.5539 60.6152 52.1631 60.6005C51.5769 60.5759 50.9907 60.5759 50.4094 60.6005C50.0772 60.6152 50.0235 60.4824 50.0283 60.1871C50.0381 58.6516 50.0332 57.116 50.0332 55.5805L50.0186 55.5855ZM52.6271 53.858V54.0499C52.6271 54.7882 53 55.1507 53.7458 55.1376C54.4199 55.1278 54.7325 54.8866 54.9572 54.2419C55.1526 53.6858 54.9279 53.2723 54.542 52.9032C54.2978 52.667 52.9837 52.4308 52.7444 52.6424C52.4562 52.8983 52.6857 53.297 52.6271 53.6218C52.6125 53.7005 52.6271 53.7793 52.6271 53.858Z" fill="#183149"/>
<path d="M36.629 55.6494C36.629 54.1926 36.629 52.7358 36.629 51.279C36.629 50.59 36.6485 50.5753 37.3031 50.5753C39.2815 50.5753 41.2599 50.5851 43.2334 50.5654C43.6682 50.5654 43.8342 50.6885 43.8 51.1314C43.7659 51.5743 43.7805 52.0173 43.8 52.4602C43.8147 52.79 43.6877 52.9081 43.3555 52.9031C42.1538 52.8884 40.9521 52.9081 39.7504 52.8884C39.4183 52.8835 39.3255 52.9721 39.3255 53.3116C39.3255 54.5617 39.3157 54.5617 40.576 54.5617C41.1915 54.5617 41.8119 54.5715 42.4274 54.5617C42.7303 54.5568 42.8621 54.6651 42.8524 54.9751C42.8377 55.3541 42.8426 55.733 42.8524 56.1169C42.8573 56.4614 42.7302 56.6238 42.3492 56.614C41.4797 56.5894 40.6102 56.614 39.7407 56.5992C39.4427 56.5943 39.3303 56.6632 39.3303 56.988C39.3206 58.2725 39.3108 58.2725 40.5955 58.2725C41.5628 58.2725 42.5251 58.2873 43.4923 58.2627C43.8733 58.2528 44.0003 58.4202 43.9954 58.7647C43.9906 59.2224 43.9954 59.685 43.9954 60.1427C43.9954 60.4724 43.8587 60.6102 43.507 60.6053C41.3869 60.5906 39.2668 60.5906 37.1468 60.6053C36.7315 60.6053 36.6339 60.4183 36.6387 60.064C36.6436 58.5924 36.6387 57.116 36.6387 55.6444L36.629 55.6494Z" fill="#183149"/>
<path d="M66.515 60.6005C65.3328 60.6005 65.323 60.6005 64.8981 59.4833C64.7613 59.124 64.5952 58.9419 64.1604 58.9715C63.4033 59.0207 62.6461 58.9961 61.8841 58.9813C61.591 58.9764 61.3467 58.9911 61.3076 59.3602C61.2979 59.4488 61.2197 59.5276 61.1855 59.6162C60.938 60.2757 60.4756 60.6054 59.7982 60.6054C59.4172 60.6054 59.041 60.6054 58.66 60.6054C58.3474 60.6054 58.235 60.4528 58.3474 60.1526C59.4904 57.0964 60.6384 54.0401 61.7717 50.9789C61.8889 50.6639 62.055 50.5655 62.3628 50.5753C62.7585 50.5901 63.159 50.6147 63.5449 50.5704C64.0481 50.5114 64.2972 50.7033 64.4682 51.1807C65.4745 53.9564 66.515 56.7174 67.5262 59.4882C67.9316 60.6005 67.9169 60.6054 66.7446 60.6054H66.5052L66.515 60.6005ZM63.0564 54.0056C62.7633 54.921 62.5142 55.7183 62.2553 56.5156C62.182 56.7469 62.3188 56.7469 62.4702 56.7469C62.8513 56.7469 63.2323 56.7272 63.6084 56.7518C63.9064 56.7715 63.9357 56.6091 63.8673 56.4123C63.6182 55.6445 63.3544 54.8866 63.0516 54.0056H63.0564Z" fill="#183149"/>
<path d="M24.2798 60.6005C23.0879 60.6005 23.083 60.6005 22.6287 59.4587C22.4968 59.124 22.3405 58.9468 21.9253 58.9714C21.1535 59.0157 20.3768 58.9961 19.605 58.9813C19.3216 58.9764 19.1067 59.001 19.0627 59.3406C19.0481 59.4587 18.9553 59.5669 18.9162 59.6851C18.5596 60.7826 18.6719 60.5808 17.6119 60.6005C17.2016 60.6054 16.7912 60.6005 16.3809 60.6005C16.0732 60.6005 15.995 60.4184 16.0878 60.1674C17.2113 57.1357 18.3544 54.109 19.4682 51.0773C19.6147 50.6787 19.8248 50.5409 20.2351 50.5655C20.6894 50.595 21.1535 50.5803 21.6078 50.5655C21.8618 50.5606 21.9839 50.6344 22.0816 50.8952C22.8095 52.8737 23.5666 54.8423 24.314 56.8158C24.6902 57.81 25.0565 58.8041 25.4229 59.8032C25.4718 59.9361 25.5304 60.064 25.5548 60.2018C25.6037 60.4528 25.5646 60.6349 25.2275 60.6005C24.9149 60.5709 24.5974 60.5955 24.2798 60.5955V60.6005ZM20.8408 54.1287L20.7431 54.1533C20.5087 54.9112 20.2937 55.679 20.0299 56.427C19.9322 56.7125 20.0006 56.7617 20.2595 56.7518C20.621 56.742 20.9874 56.7322 21.3489 56.7518C21.642 56.7715 21.6811 56.619 21.6127 56.4123C21.3635 55.6445 21.0997 54.8866 20.8408 54.1238V54.1287Z" fill="#183149"/>
<path d="M71.7956 50.3883C72.9386 50.2455 73.8765 50.7131 74.7412 51.3873C75.2834 51.8106 75.3078 52.1649 74.8291 52.6669C74.6093 52.8933 74.3895 53.1099 74.2038 53.3707C73.9547 53.7251 73.6665 53.7201 73.3343 53.4544C72.8703 53.0754 72.3915 52.726 71.7321 52.7949C71.3706 52.8343 71.0482 52.9524 70.9798 53.3117C70.9065 53.6808 71.2436 53.8629 71.5318 53.981C72.2108 54.2566 72.9093 54.4879 73.5883 54.7635C74.4237 55.108 75.1759 55.5952 75.4153 56.5254C75.8794 58.3414 75.1564 60.0049 73.0608 60.566C71.3364 61.0286 69.7732 60.5709 68.4396 59.375C68.2882 59.2421 68.1758 59.0649 68.0586 58.8976C67.9121 58.6909 67.9218 58.4842 68.0977 58.3021C68.4201 57.9723 68.7376 57.6426 69.0747 57.3325C69.3385 57.0914 69.5778 57.0569 69.8904 57.3374C70.4864 57.869 71.1166 58.366 72.0154 58.2775C72.4111 58.2381 72.6846 58.0954 72.797 57.7213C72.9191 57.3325 72.6895 57.0668 72.3866 56.9093C71.9421 56.6829 71.4732 56.5057 71.0091 56.3187C70.0419 55.9348 69.1235 55.4476 68.6497 54.483C67.8046 52.7506 68.6448 50.9887 70.4962 50.467C70.9309 50.344 71.3706 50.3883 71.8053 50.3784L71.7956 50.3883Z" fill="#183149"/>
<path d="M12.5316 50.4769C13.4353 50.408 14.3146 50.6689 15.1353 51.1906C15.4577 51.3973 15.4821 51.6286 15.3111 51.8993C15.0034 52.3865 14.6614 52.854 14.3341 53.3314C14.1583 53.5923 13.9433 53.5332 13.7333 53.3954C12.1261 52.3225 10.2943 53.3954 10.0696 55.1721C9.9035 56.5107 10.5679 57.7657 11.7549 58.1053C12.4144 58.2923 13.0738 58.2332 13.6502 57.8297C13.9775 57.6033 14.212 57.623 14.427 57.938C14.7542 58.4153 15.062 58.9026 15.3844 59.3849C15.5114 59.5768 15.4821 59.7146 15.3062 59.8721C14.9008 60.2412 14.4221 60.4873 13.9091 60.6103C12.2287 61.0287 10.6558 60.8712 9.28312 59.69C8.16447 58.7254 7.57339 57.5344 7.45127 56.0333C7.25587 53.5873 8.69204 51.412 10.9245 50.6443C11.4325 50.4671 11.9405 50.4769 12.5218 50.4769H12.5316Z" fill="#183149"/>
<path d="M45.4609 55.5903C45.4609 54.0548 45.4707 52.5193 45.4512 50.9838C45.4512 50.6442 45.5489 50.5507 45.8761 50.5654C46.3988 50.59 46.9215 50.5704 47.4393 50.5704C48.0451 50.5704 48.0646 50.5851 48.0646 51.22C48.0646 51.9189 48.0646 52.6128 48.0646 53.3116C48.0646 55.5608 48.0548 57.805 48.0744 60.0541C48.0744 60.4577 47.9718 60.6349 47.5419 60.6053C47.0241 60.5709 46.4965 60.5709 45.9787 60.6053C45.5782 60.6299 45.4365 60.5413 45.4463 60.0984C45.4805 58.5973 45.4609 57.0914 45.4609 55.5854V55.5903Z" fill="#183149"/>
<path d="M17.0697 3.2402C16.2881 3.89477 15.5065 4.55425 14.7249 5.20881C14.5442 5.29248 14.3439 5.27279 14.1632 5.24326C11.9991 4.88891 9.81558 5.18913 7.64667 5.06117C5.34586 4.92828 3.04018 5.00703 0.739373 4.97258C0.661214 4.97258 0.58794 4.95781 0.509781 4.94797C0.504896 4.78064 0.607479 4.75111 0.719833 4.74127C1.84337 4.64284 2.9669 4.55917 4.08555 4.44598C5.21886 4.3377 6.35216 4.19498 7.48547 4.08178C8.26217 4.00304 9.04376 3.95382 9.82535 3.87508C11.0075 3.75696 12.1848 3.59948 13.3718 3.52073C14.1534 3.46659 14.9301 3.3534 15.7117 3.31403C16.166 3.28942 16.6105 3.12701 17.0697 3.23036V3.2402Z" fill="#F97E3C"/>
<path d="M71.0873 41.4508C71.649 41.1555 72.2792 41.0817 72.88 40.9242C73.5835 40.7372 74.2234 40.3976 74.9122 40.1909C74.9854 40.2106 75.0685 40.2549 75.1418 40.2451C75.5521 40.1811 75.6498 40.3632 75.5814 40.7372C75.5521 40.9095 75.513 41.126 75.7963 41.1801C75.9429 41.2097 75.9136 41.3622 75.894 41.4607C75.7035 42.4007 75.8696 43.3555 75.7963 44.2955C75.7524 44.8664 75.6693 45.4422 75.4202 45.9688C75.4202 45.7621 75.4202 45.5603 75.4202 45.3536C75.4446 43.7393 74.282 42.3958 72.7188 42.2333C71.1117 42.0709 69.7097 43.1438 69.3873 44.7433C69.3189 45.0878 69.402 45.4373 69.2945 45.767C68.1905 45.7473 68.1758 45.703 68.4201 44.5908C68.7278 43.2029 69.4166 42.1644 70.8332 41.7314C70.9944 41.6821 71.0824 41.6083 71.0873 41.441V41.4508Z" fill="#F97E3C"/>
<path d="M61.6398 40.1418C62.6266 40.6733 63.6475 41.1261 64.7515 41.3623C64.8736 41.3869 65.0055 41.382 65.0788 41.505C65.0788 42.2925 65.0788 43.0849 65.069 43.8723C65.0593 44.4186 64.9762 44.955 64.7564 45.457C64.7564 45.2798 64.7564 45.1076 64.7613 44.9353C64.7906 43.2719 63.6426 41.9677 61.9818 41.7708C60.5065 41.5986 59.0508 42.6813 58.7333 44.2217C58.6551 44.6007 58.6698 45.0042 58.6454 45.393C58.3669 45.3586 58.0885 45.3192 57.81 45.2946C57.6293 45.2799 57.6146 45.1617 57.6244 45.0289C57.6977 43.7148 58.2692 41.8102 60.0669 41.3426C60.3062 41.2787 60.3307 41.0966 60.3942 40.8849C60.487 40.5749 60.3453 40.0434 60.9608 40.1073C61.1855 40.2008 61.4102 40.2796 61.6447 40.1369L61.6398 40.1418Z" fill="#F97E3C"/>
<path d="M19.3412 41.7116C20.5233 41.3867 21.7348 41.1554 22.8779 40.683C23.4934 40.6682 24.0747 40.934 24.6951 40.87C24.8807 40.8503 24.9979 40.8995 24.9931 41.121C24.9638 42.5777 25.125 44.0493 24.7049 45.4814C24.6804 45.57 24.6951 45.6783 24.5485 45.6586C24.5632 45.4224 24.5827 45.1862 24.5827 44.9499C24.5827 43.3849 23.425 42.1348 21.725 41.9872C20.2498 41.8592 18.9602 42.878 18.5938 44.2708C18.4766 44.7088 18.5743 45.1517 18.4619 45.5799C18.2567 45.4864 18.0418 45.4814 17.822 45.4716C17.5777 45.4618 17.3775 45.3486 17.4458 45.0582C17.5729 44.4971 17.6412 43.9312 17.8855 43.3898C18.2079 42.6713 18.7257 42.1545 19.3363 41.7066L19.3412 41.7116Z" fill="#F97E3C"/>
<path d="M14.7396 5.19396C14.3146 5.84852 13.8408 6.46371 13.2546 6.98539C11.4911 6.86727 9.71787 6.92141 7.95441 6.86727C5.72688 6.79837 3.50423 6.78853 1.2767 6.78853C1.03734 6.78853 0.82729 6.70486 0.5 6.60643C1.34021 6.51784 2.07783 6.43418 2.81057 6.36036C3.99273 6.23732 5.17488 6.10936 6.35703 5.99124C7.07512 5.91742 7.7932 5.86328 8.51129 5.78946C9.69344 5.67134 10.8756 5.54831 12.0577 5.42035C12.3557 5.38589 12.6635 5.36129 12.9468 5.36621C13.5574 5.38097 14.1192 4.97249 14.7396 5.19888V5.19396Z" fill="#F97E3C"/>
<path d="M10.0305 39.7972C10.9782 40.3238 11.8819 40.9291 12.937 41.2441C13.3816 41.377 13.8701 41.377 14.2755 41.6378C14.2364 42.7058 14.3488 43.7787 14.0752 44.8319C14.0508 44.9303 14.0215 45.009 13.9482 45.073C13.9482 44.9451 13.9385 44.8171 13.9482 44.6941C13.9922 43.1438 12.854 41.7461 11.4032 41.5591C9.73253 41.3425 8.31102 42.2924 7.92022 43.8673C7.81275 44.3053 7.91045 44.7482 7.84695 45.1862C7.72483 45.0976 7.58316 45.1026 7.4415 45.0976C6.86019 45.0681 6.71853 44.9057 6.83088 44.3397C6.99697 43.4735 7.21679 42.632 7.84695 41.9528C8.20843 41.564 8.62365 41.2638 9.11703 41.1161C9.43455 41.0226 9.49806 40.8405 9.58599 40.5698C9.6788 40.2942 9.55179 39.8513 10.0354 39.7922L10.0305 39.7972Z" fill="#F97E3C"/>
<path d="M12.9957 7.42333C12.7319 7.96962 12.4876 8.53067 12.0773 8.99329C8.25729 8.66847 4.43239 8.33873 0.612368 8.01391C0.612368 7.98438 0.612368 7.95977 0.607483 7.93024C0.929888 7.88103 1.24741 7.79244 1.56981 7.79244C2.59565 7.79244 3.6166 7.72846 4.64244 7.70385C5.90275 7.67433 7.16306 7.6005 8.42337 7.57589C9.94747 7.54637 11.4667 7.36427 12.9957 7.42333Z" fill="#F97E3C"/>
<path d="M12.0285 9.11645C11.8624 9.64797 11.6474 10.15 11.3153 10.5978C9.73254 10.5289 8.14493 10.4895 6.56221 10.3911C5.26282 10.3124 3.96343 10.2238 2.65915 10.1943C2.26347 10.1844 1.85803 10.1057 1.45258 10.0614C2.08762 9.80546 2.76662 9.85467 3.4212 9.79562C4.90134 9.65289 6.38147 9.5643 7.86161 9.40682C8.79463 9.30839 9.73742 9.29362 10.6704 9.20011C11.1247 9.15582 11.5742 9.09676 12.0285 9.11645Z" fill="#F97E3C"/>
<path d="M58.6356 45.3929C58.66 44.9992 58.6454 44.6006 58.7235 44.2216C59.041 42.6812 60.4967 41.5984 61.972 41.7707C63.6329 41.9626 64.7808 43.2717 64.7515 44.9352C64.7515 45.1075 64.7515 45.2846 64.7466 45.4569C64.3754 47.1844 63.0418 47.962 61.6496 47.9373C60.2818 47.9127 59.0264 47.1155 58.6356 45.3929ZM61.6789 47.455C63.1297 47.4649 64.4487 46.1951 64.3607 44.7777C64.2679 43.3111 63.203 42.3071 61.9134 42.2087C60.3893 42.0955 59.0703 43.3013 59.0801 44.8023C59.0899 46.2099 60.0718 47.3714 61.6789 47.4501V47.455Z" fill="#275C9C"/>
<path d="M18.4717 45.5848C18.584 45.1566 18.4863 44.7137 18.6036 44.2757C18.9699 42.8829 20.2644 41.8592 21.7348 41.9921C23.4348 42.1397 24.5876 43.3849 24.5925 44.9548C24.5925 45.1911 24.5681 45.4273 24.5583 45.6635C24.3776 47.1449 23.0098 48.08 21.8374 48.144C20.2009 48.2326 18.9651 47.3467 18.5743 45.8456C18.5498 45.757 18.5059 45.6684 18.4717 45.5848ZM21.5834 42.4153C20.0055 42.4153 18.926 43.5522 18.9309 45.0336C18.9309 46.5149 20.0007 47.6174 21.5394 47.6518C23.0489 47.6863 24.1822 46.5149 24.1919 45.0336C24.2017 43.6555 23.1466 42.4202 21.5834 42.4202V42.4153Z" fill="#275C9C"/>
<path d="M7.83716 45.191C7.90555 44.753 7.80297 44.3101 7.91043 43.8721C8.30123 42.2972 9.72274 41.3523 11.3934 41.5639C12.8442 41.7509 13.9824 43.1486 13.9384 44.6989C13.9384 44.8268 13.9384 44.9499 13.9384 45.0778C13.6649 46.5986 12.473 47.6173 11.0466 47.6862C9.48338 47.7601 8.0521 46.6183 7.83228 45.191H7.83716ZM10.8463 47.1695C12.3753 47.1695 13.4451 46.1015 13.4939 44.6201C13.5428 43.0994 12.2824 41.9527 10.8951 41.9428C9.4443 41.933 8.25726 43.1092 8.25726 44.5463C8.25726 46.0375 9.37103 47.1695 10.8463 47.1695Z" fill="#275C9C"/>
<path d="M69.2896 45.7718C69.3971 45.4371 69.314 45.0926 69.3824 44.7481C69.7048 43.1486 71.1068 42.0757 72.7139 42.2381C74.2771 42.3956 75.4397 43.7441 75.4153 45.3584C75.4153 45.5651 75.4153 45.7669 75.4153 45.9736C75.1466 47.1055 74.4676 47.9176 73.3685 48.2276C71.5806 48.7395 69.8269 47.9127 69.3824 45.9883C69.3629 45.9145 69.3238 45.8456 69.2945 45.7718H69.2896ZM69.7928 45.2698C69.6706 46.5789 70.9261 47.9717 72.4062 47.9225C73.8424 47.8733 75.0148 46.8053 75.0099 45.3387C75.005 43.8081 73.9987 42.6811 72.4257 42.6516C70.9603 42.622 69.7634 43.7195 69.7928 45.2698Z" fill="#275C9C"/>
<path d="M11.1589 11.0112C11.0514 11.5083 10.9489 12.0054 10.5971 12.404C9.32218 12.2859 8.04721 12.153 6.76736 12.0349C5.94181 11.9562 5.11626 11.8626 4.28582 11.8134C3.58727 11.7741 2.8985 11.6707 2.19995 11.5329C2.43931 11.4886 2.68356 11.3902 2.92292 11.4C4.01226 11.4492 5.09183 11.3114 6.17629 11.277C7.58803 11.2376 8.99978 11.1146 10.4115 11.0949C10.6558 11.0949 10.9 10.9866 11.154 11.0063L11.1589 11.0112Z" fill="#F97E3C"/>
<path d="M10.4946 12.8174C10.4946 13.2849 10.3578 13.7131 10.1184 14.1167C8.70181 13.9887 7.29007 13.8263 5.87344 13.7426C4.94042 13.6836 4.00739 13.6097 3.07437 13.4129C5.54615 13.216 8.02281 13.0192 10.4946 12.8223V12.8174Z" fill="#F97E3C"/>
<path d="M10.0061 14.7271C9.98164 15.1355 9.90837 15.5293 9.74228 15.9082C9.3466 15.7163 8.90696 15.7999 8.49662 15.7507C7.00672 15.5686 5.50704 15.4899 4.01225 15.3373C3.68496 15.3029 3.36256 15.2537 3.03038 15.2537C2.91314 15.2537 2.81056 15.2241 2.78125 15.0666C2.83498 15.0519 2.8936 15.0223 2.94734 15.0273C3.97317 15.0912 4.98924 14.9387 6.01019 14.9141C7.34378 14.8796 8.67248 14.7418 10.0061 14.7369V14.7271Z" fill="#F97E3C"/>
<path d="M9.6397 16.5283C9.64947 16.9073 9.61039 17.2813 9.45407 17.6307C8.99 17.4535 8.49662 17.5077 8.0179 17.4486C6.65012 17.2813 5.27745 17.1779 3.90967 17.05C3.82174 17.0401 3.69473 17.05 3.71916 16.9122C3.7387 16.7941 3.86571 16.8187 3.95363 16.8137C4.52029 16.7891 5.08205 16.7645 5.64871 16.7448C6.51334 16.7153 7.37309 16.5923 8.24261 16.6218C8.71156 16.6366 9.17563 16.4692 9.64947 16.5283H9.6397Z" fill="#F97E3C"/>
<path d="M9.35638 18.3345C9.41011 18.6691 9.46873 18.9989 9.52247 19.3335C8.82392 19.2696 8.12049 19.2105 7.42195 19.1367C6.59639 19.053 5.77572 18.9546 4.95505 18.8611C4.84759 18.8463 4.65707 18.9201 4.67173 18.7233C4.6815 18.5855 4.84759 18.6347 4.95017 18.6298C6.23491 18.5658 7.52453 18.5018 8.80927 18.4329C8.99489 18.4231 9.17564 18.3689 9.36126 18.3345H9.35638Z" fill="#F97E3C"/>
<path d="M24.6951 40.87C24.0747 40.934 23.4934 40.6682 22.8779 40.683C23.4445 40.4074 24.0112 40.1367 24.5729 39.8611C24.7976 40.1761 24.8221 40.5156 24.6951 40.87Z" fill="#6D6A70"/>
<path d="M61.6398 40.1417C61.4053 40.2844 61.1806 40.2056 60.9559 40.1121C60.9804 39.9645 61.1171 39.8316 61.0097 39.6692C61.3125 39.6987 61.4151 40.0039 61.6398 40.1417Z" fill="#6D6A70"/>
<path d="M61.6789 47.4551C60.0669 47.3763 59.0899 46.2149 59.0801 44.8073C59.0703 43.3062 60.3941 42.1005 61.9134 42.2137C63.1981 42.3072 64.263 43.3112 64.3607 44.7827C64.4535 46.2001 63.1346 47.4698 61.6789 47.46V47.4551ZM59.8177 44.0888C59.8177 44.8418 60.3355 45.3634 61.078 45.3634C61.8596 45.3634 62.3872 44.8467 62.3823 44.0691C62.3823 43.321 61.8547 42.7993 61.1025 42.7944C60.2916 42.7944 59.8177 43.2718 59.8177 44.0888Z" fill="#3972B7"/>
<path d="M21.5834 42.4153C23.1465 42.4153 24.2017 43.6506 24.1919 45.0286C24.1821 46.51 23.0488 47.6813 21.5394 47.6469C20.0006 47.6124 18.9308 46.51 18.9308 45.0286C18.9308 43.5473 20.0104 42.4104 21.5834 42.4104V42.4153ZM22.2184 44.2658C22.2184 43.4882 21.6957 42.9813 20.9092 42.9862C20.1618 42.9911 19.6489 43.5227 19.6489 44.2855C19.6489 45.0533 20.1814 45.5602 20.9776 45.5602C21.7446 45.5602 22.2135 45.068 22.2135 44.2707L22.2184 44.2658Z" fill="#3972B7"/>
<path d="M10.8463 47.1696C9.37591 47.1696 8.25726 46.0327 8.25726 44.5464C8.25726 43.1093 9.4443 41.9331 10.8951 41.9429C12.2776 41.9528 13.5428 43.0995 13.4939 44.6202C13.4451 46.1065 12.3801 47.1745 10.8463 47.1696ZM10.2747 42.5138C9.56642 42.5089 8.94115 43.1143 8.9265 43.823C8.91184 44.5218 9.53223 45.1616 10.2357 45.1714C10.9537 45.1862 11.5741 44.5513 11.579 43.8082C11.579 43.1438 10.9489 42.5188 10.2699 42.5138H10.2747Z" fill="#3972B7"/>
<path d="M69.7928 45.27C69.7635 43.7148 70.9652 42.6222 72.4257 42.6517C73.9987 42.6812 75.005 43.8033 75.0099 45.3389C75.0148 46.8055 73.8424 47.8734 72.4062 47.9226C70.9212 47.9768 69.6706 46.5791 69.7928 45.27ZM71.7419 43.2669C71.0677 43.1586 70.4815 43.8181 70.462 44.4874C70.4425 45.1912 71.0726 45.831 71.776 45.8359C72.5039 45.8359 73.1145 45.2158 73.1145 44.4628C73.1145 43.7738 72.5332 43.262 71.7419 43.262V43.2669Z" fill="#3972B7"/>
<path d="M59.8177 44.0888C59.8177 43.2767 60.2965 42.7944 61.1025 42.7944C61.8548 42.7944 62.3823 43.3161 62.3823 44.0691C62.3823 44.8467 61.8597 45.3684 61.0781 45.3635C60.3307 45.3635 59.8177 44.8369 59.8177 44.0888Z" fill="#6D6A70"/>
<path d="M22.2184 44.266C22.2184 45.0633 21.7494 45.5554 20.9825 45.5554C20.1814 45.5554 19.6538 45.0534 19.6538 44.2808C19.6538 43.5228 20.1667 42.9913 20.9141 42.9815C21.7006 42.9766 22.2233 43.4835 22.2233 44.2611L22.2184 44.266Z" fill="#6D6A70"/>
<path d="M10.2748 42.5138C10.9538 42.5187 11.5888 43.1437 11.5839 43.8081C11.5839 44.5562 10.9587 45.1862 10.2406 45.1714C9.53714 45.1566 8.91675 44.5218 8.93141 43.8229C8.94606 43.1142 9.57133 42.5039 10.2796 42.5138H10.2748Z" fill="#6D6A70"/>
<path d="M71.7418 43.2669C72.5332 43.2669 73.1145 43.7738 73.1145 44.4677C73.1145 45.2158 72.5039 45.8458 71.776 45.8408C71.0726 45.8408 70.4425 45.1961 70.462 44.4924C70.4815 43.8181 71.0677 43.1635 71.7418 43.2718V43.2669Z" fill="#6D6A70"/>
</svg>
