<svg width="25" height="26" viewBox="0 0 25 26" fill="none" xmlns="http://www.w3.org/2000/svg">
<g clip-path="url(#clip0_738_398)">
<path d="M25 13.3206C25 20.2245 19.4035 25.8209 12.4997 25.8209C5.59645 25.8203 0 20.2239 0 13.3206C0 6.41676 5.59645 0.820312 12.5003 0.820312C19.4042 0.820312 25.0006 6.41676 25.0006 13.3206H25Z" fill="#183149"/>
<path d="M15.8915 6.76343H9.10846C7.36063 6.76343 5.94312 8.18094 5.94312 9.92877V16.7118C5.94312 18.4597 7.36063 19.8772 9.10846 19.8772H15.8915C17.6394 19.8772 19.0569 18.4597 19.0569 16.7118V9.92877C19.0569 8.18094 17.6394 6.76343 15.8915 6.76343ZM17.9263 16.486C17.9263 17.7342 16.9133 18.7472 15.665 18.7472H9.33433C8.08606 18.7472 7.0731 17.7342 7.0731 16.486V10.1553C7.0731 8.907 8.08606 7.89404 9.33433 7.89404H15.665C16.9133 7.89404 17.9263 8.907 17.9263 10.1553V16.486Z" fill="white"/>
<path d="M12.5066 9.92871C10.6348 9.92871 9.11536 11.4482 9.11536 13.3199C9.11536 15.1917 10.6348 16.7111 12.5066 16.7111C14.3783 16.7111 15.8978 15.1917 15.8978 13.3199C15.8978 11.4482 14.3783 9.92871 12.5066 9.92871ZM12.5066 15.5812C11.2608 15.5812 10.2453 14.5657 10.2453 13.3199C10.2453 12.0742 11.2608 11.0587 12.5066 11.0587C13.7523 11.0587 14.7678 12.0742 14.7678 13.3199C14.7678 14.5657 13.7523 15.5812 12.5066 15.5812Z" fill="white"/>
<path d="M16.1243 10.3811C15.7506 10.3811 15.446 10.0766 15.446 9.7029C15.446 9.32918 15.7506 9.02466 16.1243 9.02466C16.498 9.02466 16.8025 9.32918 16.8025 9.7029C16.8025 10.0766 16.498 10.3811 16.1243 10.3811Z" fill="white"/>
</g>
<defs>
<clipPath id="clip0_738_398">
<rect width="25" height="25" fill="white" transform="translate(0 0.820312)"/>
</clipPath>
</defs>
</svg>
