<svg width="25" height="26" viewBox="0 0 25 26" fill="none" xmlns="http://www.w3.org/2000/svg">
<g clip-path="url(#clip0_738_418)">
<path d="M25 13.3206C25 20.2245 19.4035 25.8209 12.4997 25.8209C5.59645 25.8203 0 20.2239 0 13.3206C0 6.41676 5.59645 0.820312 12.5003 0.820312C19.4042 0.820312 25.0006 6.41676 25.0006 13.3206H25Z" fill="#183149"/>
<path d="M12.455 5.3107C8.59195 5.43591 5.40081 8.56476 5.20765 12.4253C5.13781 13.8171 5.44485 15.1326 6.04193 16.2746L5.20325 20.0307C5.16801 20.2006 5.31839 20.351 5.48826 20.3157L9.2444 19.4771H9.24691C10.3813 20.0697 11.6831 20.3768 13.0647 20.3126C16.919 20.1339 20.0579 16.9673 20.207 13.1118C20.3756 8.74533 16.8164 5.16914 12.4557 5.3107H12.455ZM12.7048 18.768C11.6126 18.768 10.5896 18.4729 9.70998 17.9576C9.62693 17.9111 9.54703 17.862 9.46901 17.8098L7.06936 18.449L7.7086 16.0493C7.10271 15.1175 6.751 14.0071 6.751 12.8135C6.751 9.53116 9.42245 6.85972 12.7048 6.85972C15.9872 6.85972 18.6586 9.53116 18.6586 12.8135C18.6586 16.0959 15.9872 18.7674 12.7048 18.7674V18.768Z" fill="white"/>
<path d="M16.2357 15.4346C16.1319 15.5906 16.023 15.736 15.8487 15.9096C15.4675 16.2909 14.9377 16.4834 14.4004 16.4287C13.4378 16.3299 12.07 15.7982 10.894 14.6248C9.71813 13.4489 9.18649 12.0811 9.09022 11.1185C9.03549 10.5812 9.22801 10.0521 9.60929 9.67015C9.78294 9.4965 9.92828 9.38702 10.0843 9.28069C10.3725 9.08628 10.7644 9.21589 10.8733 9.54306L11.2678 10.7265C11.3766 11.0512 11.3275 11.2563 11.1872 11.3934L10.8733 11.7105C10.7173 11.8666 10.6915 12.1075 10.811 12.2944C10.9846 12.5668 11.3118 13.0029 11.9139 13.605C12.516 14.2071 12.9521 14.5342 13.2245 14.7079C13.4114 14.8274 13.653 14.8016 13.8084 14.6456L14.1255 14.3317C14.2632 14.1914 14.4684 14.1423 14.7924 14.2511L15.9758 14.6456C16.303 14.7545 16.4326 15.1464 16.2357 15.4346Z" fill="white"/>
</g>
<defs>
<clipPath id="clip0_738_418">
<rect width="25" height="25" fill="white" transform="translate(0 0.820312)"/>
</clipPath>
</defs>
</svg>
