<svg width="40" height="52" viewBox="0 0 40 52" fill="none" xmlns="http://www.w3.org/2000/svg">
<path d="M40 26.0203C40 39.9907 31.0457 51.3155 19.9995 51.3155C8.95432 51.3143 0 39.9895 0 26.0203C0 12.0498 8.95432 0.725037 20.0005 0.725037C31.0467 0.725037 40.001 12.0498 40.001 26.0203H40Z" fill="#00D355"/>
<path d="M20.0175 13.2339C15.2298 13.43 11.2756 18.3342 11.036 24.3855C10.9495 26.5665 11.33 28.629 12.0699 30.4191L11.03 36.3062C10.9857 36.5723 11.1729 36.8078 11.3833 36.7531L16.0382 35.4379H16.0412C17.4465 36.3673 19.0602 36.8473 20.7725 36.748C25.5492 36.4679 29.44 31.5051 29.6242 25.4614C29.8336 18.6168 25.4223 13.0124 20.0175 13.2339ZM20.3276 34.3277C18.9736 34.3277 17.7062 33.8655 16.616 33.0571C16.5133 32.9845 16.4137 32.9068 16.318 32.8254L13.3443 33.8273L14.1366 30.0664C13.3856 28.6061 12.9497 26.8644 12.9497 24.9941C12.9497 19.8493 16.2606 15.6618 20.3286 15.6618C24.3965 15.6618 27.7075 19.8493 27.7075 24.9941C27.7075 30.139 24.3965 34.3264 20.3286 34.3264L20.3276 34.3277Z" fill="white"/>
<path d="M24.7036 29.1026C24.5748 29.3471 24.4399 29.5749 24.2244 29.8474C23.7513 30.4458 23.095 30.7463 22.4296 30.661C21.2367 30.5069 19.5414 29.673 18.0838 27.8333C16.6271 25.991 15.9667 23.847 15.848 22.337C15.7805 21.4954 16.0181 20.6653 16.4912 20.0669C16.7066 19.7945 16.8868 19.6239 17.0801 19.4571C17.4375 19.1515 17.9227 19.3552 18.0576 19.8683L18.5468 21.7233C18.6817 22.2313 18.6203 22.5534 18.4472 22.7686L18.0576 23.2651C17.8643 23.5096 17.8321 23.8877 17.9801 24.1805C18.1955 24.6083 18.6012 25.2907 19.3471 26.2354C20.0931 27.1788 20.6337 27.6919 20.9719 27.9644C21.2034 28.1515 21.5024 28.1108 21.6957 27.8664L22.0883 27.3736C22.2584 27.1534 22.5131 27.077 22.9148 27.2476L24.3815 27.8664C24.7872 28.037 24.9472 28.6519 24.7036 29.1026Z" fill="white"/>
</svg>
