<svg width="191" height="300" viewBox="0 0 191 300" fill="none" xmlns="http://www.w3.org/2000/svg">
<path d="M89.9872 216.601C89.9249 213.314 89.8675 209.965 89.8675 206.559C89.5081 206.496 89.1488 206.377 88.8517 206.319C84.9566 206.199 81.1285 205.778 77.2382 205.184C77.0561 205.184 76.8788 205.121 76.6393 205.184C72.6866 205.538 68.6765 205.6 64.7286 205.658C60.3592 205.778 55.9897 205.84 51.6202 205.96C50.1829 206.017 48.6881 206.199 47.2508 206.199C46.4123 206.199 45.9332 206.616 45.6937 207.392C45.5116 207.991 45.2721 208.59 45.0948 209.246C45.7512 210.142 45.6937 211.163 45.4541 212.179C44.7355 215.767 44.0168 219.413 43.3604 223.059C43.2981 223.476 43.1784 223.898 43.0011 224.314C42.5795 225.512 41.8033 225.991 40.5433 225.929C40.0067 225.929 39.4701 225.871 38.991 225.689C37.7932 225.392 36.6529 225.033 35.5174 224.674C35.2204 224.554 34.861 224.434 34.5592 224.257C33.6633 223.778 33.2417 223.002 33.4237 221.981C33.4812 221.564 33.601 221.147 33.7208 220.726C34.679 217.497 35.6947 214.33 36.6529 211.163C36.7727 210.741 36.9547 210.324 37.0745 209.903C37.4913 208.767 38.1525 207.934 39.5276 207.991C39.9492 207.153 40.1264 206.319 40.366 205.481C40.6055 204.704 40.8451 203.924 41.0847 203.09C41.444 201.954 42.2201 201.356 43.4179 201.236C45.5739 201.054 47.6676 200.819 49.8236 200.699C54.4326 200.46 59.0416 200.397 63.6507 200.46C64.4891 200.46 65.385 200.46 66.2857 200.46C66.4055 200.038 65.9839 200.038 65.8066 199.918C62.3331 198.246 58.7398 196.929 55.0315 196.033C51.5005 195.194 47.9694 194.84 44.3186 194.84C41.5638 194.84 38.7514 194.84 35.9965 194.72C33.9603 194.658 31.9241 194.658 29.8927 194.298C28.6949 194.059 27.4971 193.762 26.4192 193.225C24.565 192.267 23.2475 190.83 22.7684 188.798C22.6486 188.319 22.4665 187.902 22.1695 187.481C22.0497 187.303 21.9299 187.184 21.8724 187.006C16.8418 178.037 11.9357 169.006 7.98307 159.501C5.34798 153.162 3.37405 146.646 1.99901 139.886C1.57739 137.677 1.21806 135.521 1.28035 133.25C1.28035 130.797 1.93673 128.589 3.55611 126.672C3.73338 126.495 3.85316 126.255 3.97293 126.078C3.97293 126.016 3.97293 125.958 3.97293 125.958C3.91544 125.656 3.67589 125.719 3.55611 125.719C2.53561 125.599 1.87923 125 1.5199 124.042C1.28035 123.323 1.09829 122.547 0.978509 121.771C0.858731 120.813 1.21806 120.036 1.93672 119.5C2.47812 119.021 3.077 118.604 3.67589 118.182C5.76959 116.75 7.98307 115.614 10.3163 114.594C10.6757 114.474 11.035 114.297 11.4566 114.119C11.3368 112.859 11.1548 111.666 11.035 110.469C10.7954 107.958 10.4984 105.448 10.2588 102.937C9.8995 98.5724 9.54017 94.2078 9.18084 89.9006C8.94129 86.9732 8.70173 83.9836 8.46218 81.0515C8.3424 79.916 8.28491 78.838 8.16513 77.7025C8.10285 76.9838 7.92558 76.3274 7.38418 75.7286C6.7853 75.1345 6.60803 74.296 6.48825 73.4576C6.18641 71.3639 5.88937 69.3325 5.64981 67.2388C5.10842 61.5613 4.93115 55.8216 5.05093 50.0771C5.29048 41.6496 6.84758 33.5143 10.5559 25.863C11.8734 23.1129 13.4305 20.4826 15.1649 17.9098C16.8418 15.4615 18.7582 13.2481 21.034 11.2741C21.3933 10.9771 21.6329 10.7375 21.7526 10.2584C21.8724 9.83681 22.227 9.41999 22.5288 9.06066C23.8463 7.62812 25.3412 6.37286 26.8983 5.23258C28.0337 4.39893 29.4136 3.97732 30.7886 3.61799C33.783 2.84183 36.835 2.24295 39.9492 1.88841C43.4179 1.4093 46.8914 0.987682 50.3602 0.748128C55.0315 0.393589 59.698 0.273811 64.3693 0.570858C67.8381 0.810412 71.3691 0.987682 74.8426 1.28952C78.5557 1.64885 82.264 2.12317 85.9771 2.60228C88.3726 2.90411 90.7634 3.26345 93.1589 3.85754C94.3567 4.15938 95.5545 4.5762 96.69 5.17509C98.9657 6.31057 100.403 8.10244 100.82 10.6178C100.882 10.9148 100.94 11.1544 101.059 11.5712C102.914 12.5294 104.174 14.2015 105.371 15.9359C109.142 21.139 112.251 26.7589 114.23 32.858C115.308 36.2069 115.964 39.6134 116.444 43.0821C117.22 48.7021 117.34 54.3268 117.22 59.9467C117.162 62.6345 116.923 65.3846 116.741 68.0772C116.563 70.1709 116.084 72.2023 115.308 74.1762C115.006 74.9524 115.006 75.6711 115.188 76.4472C116.741 83.2649 118.959 89.9006 121.23 96.4787C122.729 100.901 124.344 105.266 125.599 109.75C125.839 110.708 126.141 111.666 126.438 112.74C126.859 112.443 127.156 112.265 127.516 112.083C129.312 110.948 131.109 109.75 132.906 108.615C136.854 106.104 141.223 105.208 145.894 105.625C148.405 105.864 150.92 106.047 153.436 106.406C157.982 107.062 162.414 108.198 166.544 110.172C174.023 113.698 179.59 119.198 183.064 126.734C184.798 130.5 185.517 134.448 185.579 138.573C185.579 140.188 185.277 141.683 184.142 142.876C184.142 145.209 184.142 147.542 184.142 149.875C184.142 151.25 184.142 152.563 184.142 153.938C184.142 155.912 183.543 157.646 182.465 159.261C181.569 160.636 180.611 161.891 179.413 162.969C177.736 164.584 175.939 166.079 174.205 167.631C173.903 167.933 173.548 168.168 173.247 168.47C173.486 169.006 174.023 169.126 174.444 169.365C177.496 171.157 180.491 173.074 183.183 175.345C183.662 175.762 184.142 176.183 184.558 176.662C185.459 177.616 185.938 178.751 185.818 180.126C185.636 181.861 185.517 183.595 185.22 185.329C184.918 187.126 184.501 188.918 184.142 190.772C184.022 191.251 183.902 191.73 183.72 192.147C183.241 193.58 182.345 194.72 181.027 195.496C179.949 196.095 178.814 196.689 177.678 197.168C174.143 198.663 170.434 199.679 166.721 200.637C160.201 202.251 153.675 203.626 147.03 204.704C142.78 205.361 138.468 205.897 134.161 206.319C129.135 206.798 124.105 207.033 119.016 207.215C113.928 207.392 108.84 207.392 103.695 207.335C103.455 207.335 103.215 207.392 102.976 207.392C102.976 210.324 102.976 213.132 102.976 216.064C103.215 216.184 103.455 216.361 103.695 216.481C104.533 216.84 105.012 217.497 105.252 218.278C105.429 218.934 105.549 219.59 105.611 220.252C105.731 222.043 105.851 223.835 105.97 225.632C106.21 229.815 106.267 234.002 106.21 238.127C106.21 239.382 106.21 240.638 105.668 241.955C106.028 241.955 106.267 242.013 106.569 241.955C109.679 241.236 112.913 240.997 116.084 240.82C119.016 240.638 122.011 240.518 124.943 240.638C128.953 240.82 132.906 241.179 136.796 241.893C139.249 242.372 141.764 242.909 144.217 243.45C144.457 243.507 144.697 243.57 144.936 243.627C146.972 244.169 148.347 245.362 148.946 247.455C149.124 248.174 149.425 248.95 149.665 249.669C150.144 251.101 149.785 250.804 151.399 251.283C153.795 251.997 156.248 252.716 158.643 253.435C164.148 255.169 169.534 257.2 174.804 259.591C176.241 260.252 177.616 260.966 178.934 261.685C181.147 262.94 182.225 264.914 182.584 267.367C182.762 268.383 182.465 269.159 181.506 269.696C181.387 269.758 181.267 269.815 181.147 269.878C180.908 269.997 180.788 270.175 180.85 270.476C180.908 270.773 181.147 270.773 181.449 270.716C182.048 270.596 182.584 270.476 183.183 270.414C185.579 270.117 187.61 270.893 189.048 272.867C190.485 274.779 191.146 276.873 190.787 279.263C190.485 281.3 189.469 282.914 187.73 283.987C185.517 285.362 183.064 285.904 180.491 285.784C179.83 285.722 179.111 285.664 178.455 285.482C175.221 284.826 173.309 281.894 173.189 279.263C173.189 278.846 173.127 278.367 173.189 277.951C173.606 275.378 173.069 272.805 173.189 270.237C173.189 270.055 173.127 269.878 173.069 269.696C172.111 269.159 156.847 264.794 152.535 263.779C152.175 264.018 151.816 264.258 151.399 264.555C150.441 265.211 149.425 265.513 148.285 265.57C147.03 265.633 145.775 265.57 144.515 265.211C142.421 264.555 140.984 263.242 140.088 261.268C139.968 261.028 139.906 260.727 139.728 260.372C139.369 260.252 138.947 260.133 138.53 260.013C134.817 259.117 131.047 258.336 127.219 257.799C122.131 257.081 116.98 256.602 111.835 256.903C109.918 257.023 108.064 257.263 106.21 257.502C105.788 257.56 105.371 257.679 104.83 257.799C104.83 258.216 104.773 258.638 104.773 259.055C104.83 262.82 104.892 266.648 104.95 270.414C104.95 272.45 105.012 274.482 104.95 276.513C104.95 277.409 104.773 278.248 104.653 279.086C104.533 280.102 103.872 280.701 102.914 281.06C102.617 281.18 102.257 281.237 101.96 281.3C101.539 281.419 101.122 281.477 100.58 281.539C100.58 281.836 100.58 282.076 100.523 282.315C101.002 282.675 101.539 282.555 102.018 282.555C104.111 282.492 104.653 283.034 104.892 285.123C105.07 286.44 105.132 287.753 105.132 289.071C105.132 291.164 105.012 293.258 104.95 295.347C104.892 297.081 104.111 298.337 102.018 298.758C99.9239 299.237 97.8877 299.175 95.794 298.935C94.4142 298.758 93.5183 297.92 93.1014 296.602C92.9817 296.185 92.8619 295.769 92.7996 295.347C92.56 292.003 92.3205 288.654 92.1432 285.305C92.1432 284.883 92.1432 284.409 92.263 283.987C92.3828 283.331 92.7421 283.034 93.4608 282.914C94.0549 282.852 94.716 282.914 95.3724 282.612C95.3724 282.315 95.3724 282.013 95.3149 281.716C95.1951 281.654 95.0754 281.539 94.9556 281.539C94.6537 281.477 94.3567 281.477 94.1171 281.357C93.1589 281.117 92.4403 280.519 92.2007 279.565C91.9612 278.664 91.7839 277.768 91.7216 276.873C91.6018 274.482 91.6018 272.091 91.5443 269.758C91.482 265.992 91.4246 262.164 91.3623 258.398C91.3623 257.919 91.3048 257.44 91.3048 256.903C91.0029 256.841 90.7059 256.784 90.4663 256.784C89.0865 256.784 87.7738 256.784 86.3939 256.903C81.186 257.2 76.0404 257.622 70.8948 258.336C67.8381 258.757 64.7286 259.294 61.6767 259.831C61.3749 259.893 61.1353 260.013 60.776 260.07C60.7185 260.31 60.5987 260.492 60.5364 260.727C59.9376 263.481 58.0834 264.794 55.4483 265.211C53.8337 265.451 52.2766 265.393 50.662 264.976C49.4643 264.674 48.5683 264.018 47.7874 263.122C45.1523 263.419 32.9446 267.185 23.7841 270.596C23.6068 271.492 23.7266 272.45 23.6643 273.466C23.6068 274.362 23.7841 275.258 24.0236 276.216C24.7423 279.086 23.9038 281.477 21.7526 283.451C20.5549 284.466 19.175 285.003 17.6227 284.946C15.0451 284.826 12.5346 284.227 10.1391 283.211C6.84758 281.836 6.18641 278.784 6.60803 276.456C7.02485 274.065 8.28491 272.149 10.3163 270.716C11.6962 269.758 13.191 269.398 14.8679 269.815C15.1074 269.878 15.4045 269.878 15.7638 269.935C14.566 268.143 14.566 268.143 14.269 265.992C14.2067 265.752 14.2067 265.513 14.2067 265.273C14.1492 264.138 14.5085 263.18 15.347 262.404C16.0033 261.805 16.722 261.326 17.4407 260.846C20.5549 258.935 23.8463 257.382 27.1953 255.945C33.3039 253.435 39.5898 251.403 45.9907 249.846C46.4698 249.726 46.9489 249.607 47.428 249.487C47.4903 249.487 47.6101 249.367 47.7299 249.309C47.7874 248.95 47.8497 248.533 47.8497 248.054C47.9072 247.633 47.9072 247.158 47.9694 246.737C48.1467 245.122 48.9851 243.929 50.3602 243.148C51.9173 242.314 53.5942 241.835 55.271 241.414C57.9014 240.82 60.5987 240.46 63.3488 240.158C68.3172 239.684 73.3478 239.502 78.3162 239.622C81.5453 239.742 84.8368 239.861 88.0133 240.398C88.1906 240.46 88.3726 240.398 88.5499 240.398C88.6122 240.221 88.6697 240.158 88.6697 240.039C88.5499 237.351 88.4301 234.721 88.3726 232.028C88.2529 228.919 88.1331 225.809 88.0708 222.7C88.0708 221.861 88.0708 221.028 88.0708 220.252C88.1331 218.872 88.6122 217.679 89.6279 216.783C89.7477 216.903 89.8675 216.783 89.9872 216.601ZM24.0859 10.0764C24.1434 10.2584 24.2057 10.3159 24.2632 10.3782C25.7628 11.7532 26.7785 13.4876 27.5546 15.2795C28.3931 17.1911 29.174 19.1076 29.8304 21.0815C32.2834 28.1962 34.1424 35.4883 35.9342 42.7851C36.7152 45.952 37.4339 49.1812 38.2723 52.4104C38.4496 53.1865 38.7514 53.9675 39.0484 54.7436C39.6473 56.1762 40.7828 57.0769 42.2824 57.3739C43.0011 57.4937 43.7197 57.6135 44.4384 57.671C47.6676 57.9728 50.9591 58.0303 54.1931 58.0303C58.5002 58.0303 62.8122 57.9728 67.1817 57.9728C71.8482 57.9728 76.5195 57.7907 81.1285 57.3739C82.7431 57.1967 84.42 56.9571 85.9771 56.5355C87.2946 56.1762 88.3104 55.4 88.9715 54.207C89.3261 53.5458 89.6854 52.832 89.9872 52.1133C90.7059 50.4987 91.3623 48.8841 92.0234 47.2695C93.7578 42.9049 95.3724 38.4779 96.5127 33.8737C98.0075 27.8944 98.7262 21.7379 98.9034 15.5765C98.9657 14.2015 98.9034 12.769 98.8459 11.3316C98.7262 9.41999 97.7679 7.92517 96.0336 7.02924C95.0754 6.55013 94.1171 6.1333 93.1014 5.83147C90.5238 5.05531 87.8935 4.69598 85.2584 4.39893C81.4256 3.91983 77.655 3.503 73.8269 3.14367C70.4157 2.84183 67.0619 2.60228 63.6507 2.42501C57.3647 2.18545 51.0788 2.4825 44.7929 3.20116C40.5433 3.68027 36.3559 4.33665 32.1637 5.29487C30.0125 5.77397 28.0337 6.60762 26.3617 8.10244C25.5807 8.76361 24.7423 9.36249 24.0859 10.0764ZM40.9026 59.1658C40.9649 60.0665 40.9649 60.7804 41.0224 61.499C41.3817 64.7905 41.6835 68.0772 42.0429 71.3639C42.3399 74.3535 42.6992 77.3432 43.0586 80.3328C43.4802 83.9213 43.9593 87.5673 44.3761 91.1558C44.7929 94.6246 45.2146 98.0933 45.6937 101.562C46.2303 105.505 46.8292 109.453 47.3706 113.401C47.4903 114.177 47.7874 114.594 48.506 114.896C50.0009 115.495 51.558 115.849 53.1773 116.031C56.0472 116.328 58.8596 116.63 61.7342 116.807C67.0619 117.109 72.3896 116.989 77.7173 116.448C81.4878 116.031 85.1962 115.495 88.9092 114.594C90.5861 114.234 92.2007 113.818 93.7578 113.042C94.4765 112.682 95.2526 112.323 95.7317 111.604C95.3724 109.812 95.0131 108.078 94.6537 106.344C93.0391 97.5567 91.6018 88.7651 90.4663 79.916C89.6279 73.4001 88.732 66.9417 87.8312 60.4211C87.7115 59.7647 87.5917 59.1083 87.5342 58.3896C87.1749 58.4519 86.9353 58.4519 86.7533 58.5094C84.7793 59.1083 82.7431 59.3479 80.7069 59.5251C76.577 59.8844 72.4471 60.0665 68.3172 60.0665C62.2756 60.124 56.167 60.124 50.1206 60.0665C47.7299 60.0665 45.2721 59.9467 42.8813 59.5874C42.2201 59.4053 41.6835 59.2856 40.9026 59.1658ZM64.9682 170.98C64.9682 171.038 64.9682 171.157 65.0257 171.22C65.5671 171.339 66.166 171.459 66.7026 171.517C70.7127 171.996 74.7228 172.532 78.6755 173.011C81.2483 173.313 83.7636 173.73 86.2167 174.506C89.2686 175.407 91.9037 176.959 94.0549 179.293C98.6064 184.256 101.122 192.923 98.3668 200.1C97.8877 201.293 97.3511 202.549 96.9295 203.746C96.7522 204.163 96.4504 204.522 96.6325 205.002C96.9295 205.064 97.1691 205.121 97.4709 205.121C99.2628 205.184 101.059 205.303 102.856 205.303C113.569 205.481 124.344 205.303 134.999 204.225C139.129 203.809 143.317 203.267 147.447 202.611C153.076 201.715 158.643 200.517 164.148 199.204C164.57 199.085 164.987 198.965 165.404 198.845C165.643 198.184 165.945 197.647 166.122 197.048C168.159 191.189 167.44 185.751 163.43 180.907C161.873 178.991 160.081 177.256 158.164 175.642C155.592 173.553 152.717 171.876 149.483 170.98C147.15 170.324 144.754 169.902 142.301 169.782C139.307 169.605 136.317 169.485 133.265 169.663C130.031 169.845 126.74 169.964 123.506 170.204C119.797 170.443 116.022 170.741 112.314 170.621C108.72 170.501 105.132 170.324 101.601 169.605C100.94 169.485 100.221 169.485 99.5646 169.543C98.6639 169.605 97.768 169.845 96.8097 169.902C93.8153 170.261 90.8257 170.683 87.8312 170.86C85.0189 171.1 82.2065 171.157 79.3941 171.157C76.0979 171.157 72.8064 171.038 69.5149 170.98C68.0776 171.1 66.5253 171.038 64.9682 170.98ZM22.9456 12.1126C22.4665 12.5294 21.9922 12.8887 21.5706 13.3678C19.956 14.9824 18.4564 16.7168 17.1436 18.5662C10.9775 27.3003 7.62374 37.0454 7.14463 47.7486C6.84758 53.5458 7.02485 59.4053 7.50396 65.2073C7.62374 67.0615 7.86329 68.8534 8.04535 70.7075C8.16513 71.6657 8.3424 72.6191 8.58196 73.5774C8.76402 74.4733 9.30062 75.0147 10.1966 75.2542C11.035 75.4315 11.9357 75.6088 12.7742 75.7286C14.9876 76.0304 16.7843 77.0461 18.2168 78.7805C19.5344 80.3328 20.8519 81.8899 22.112 83.5045C24.1434 86.1348 26.0598 88.7651 28.1535 91.3379C32.7051 97.0776 37.3141 102.817 41.8608 108.495C42.6992 109.573 43.6 110.588 44.4959 111.604C44.6157 111.786 44.7355 112.026 45.1523 111.964C45.1523 111.307 45.0325 110.651 44.975 109.99C44.3186 105.088 43.6575 100.187 43.0011 95.281C42.6418 92.5932 42.3399 89.9006 41.9806 87.2128C41.6213 84.3381 41.2619 81.4108 40.9649 78.5409C40.6055 75.5513 40.2462 72.5617 39.9492 69.572C39.6473 66.7022 39.4078 63.77 39.1682 60.9002C39.1107 60.124 39.0484 59.3479 39.0484 58.5717C39.0484 58.0926 38.8712 57.7333 38.5693 57.4314C37.7309 56.5355 37.1943 55.4623 36.835 54.2645C36.4756 52.8895 36.054 51.5719 35.757 50.1969C33.9603 42.2485 31.9241 34.3528 29.5909 26.5194C28.6326 23.2327 27.6169 19.946 26.1221 16.7743C25.5807 15.5765 24.9243 14.441 24.2632 13.3056C23.9038 12.8887 23.5445 12.3521 22.9456 12.1126ZM113.689 78.5984C113.511 78.9003 113.392 79.02 113.272 79.1973C110.876 84.2806 108.481 89.3017 106.21 94.385C104.054 99.2288 101.96 104.073 99.8042 108.916C99.3825 109.812 98.9657 110.651 98.4243 111.484C98.065 112.026 97.9452 112.505 98.065 113.099C98.4866 115.312 98.9657 117.464 99.3251 119.677C99.8042 122.609 100.283 125.537 100.7 128.469C101.002 130.797 101.179 133.073 101.299 135.401C101.481 138.813 101.658 142.162 101.778 145.568C101.84 147.959 101.778 150.35 101.778 152.683C101.778 153.1 101.84 153.521 101.898 154C109.918 154.896 117.819 156.271 125.662 157.944C125.719 157.944 125.781 157.944 125.781 157.944C125.839 157.944 125.839 157.886 126.021 157.824C126.078 157.527 126.198 157.167 126.261 156.808C126.917 153.1 127.276 149.396 127.396 145.688C127.636 138.271 127.396 130.86 126.38 123.443C125.599 117.823 124.464 112.265 122.667 106.823C121.172 102.338 119.615 97.8538 118.058 93.307C116.501 88.7076 114.949 84.1034 113.928 79.3794C113.928 79.1398 113.808 78.9003 113.689 78.5984ZM99.7419 153.818C99.8042 153.521 99.8616 153.339 99.8616 153.162C99.8616 151.25 99.9814 149.276 99.9239 147.36C99.8042 143.417 99.6844 139.531 99.5023 135.584C99.3825 133.313 99.2053 131.037 98.9034 128.766C98.1848 124.042 97.4086 119.38 96.6325 114.714C96.5702 114.474 96.4504 114.177 96.3306 113.88C94.2369 115.255 91.9612 115.911 89.6279 116.448C86.3364 117.224 82.9827 117.823 79.5714 118.182C75.9781 118.604 72.3273 118.901 68.6765 118.958C64.3693 119.021 60.0573 118.719 55.7502 118.364C53.2971 118.125 50.8393 117.823 48.4485 116.989C48.2665 116.927 48.0892 116.989 47.7874 116.989C48.0269 119.021 48.3863 120.932 48.6258 122.969C48.9851 123.266 49.3445 123.625 49.7038 123.922C52.0993 126.136 54.2505 128.589 56.0472 131.339C58.1409 134.448 59.7603 137.735 60.7185 141.323C61.1976 143.177 61.6144 145.089 61.6767 147.063C61.7342 148.917 60.9581 150.23 59.3387 151.068C58.8596 151.308 58.4427 151.547 57.9636 151.844C57.9636 153.22 57.8439 154.48 58.0211 155.855C71.7284 153.22 85.6178 152.563 99.7419 153.818ZM97.2888 109.453C97.5907 108.916 97.7105 108.734 97.8302 108.557C98.3046 107.479 98.7837 106.463 99.2628 105.385C102.914 96.8381 106.746 88.3483 110.819 79.916C111.715 78.1241 112.433 76.27 113.152 74.4158C114.288 71.4837 114.886 68.4365 115.006 65.3271C115.126 62.9939 115.246 60.6606 115.308 58.3321C115.428 52.4104 115.188 46.4934 114.11 40.6339C113.449 36.8058 112.491 33.04 110.939 29.4515C108.783 24.6077 106.21 20.0035 102.914 15.8161C102.554 15.3418 102.2 14.9201 101.778 14.5033C101.601 14.3213 101.481 14.0817 101.122 14.2638C101.122 14.3835 101.059 14.5033 101.059 14.6806C100.94 16.7168 100.882 18.7482 100.7 20.7796C100.403 24.0088 100.044 27.238 99.3825 30.4672C98.7262 33.936 97.7679 37.3424 96.6325 40.6914C95.2526 44.759 93.6955 48.8218 91.9612 52.7697C91.3623 54.0872 90.8257 55.4623 89.8052 56.5355C89.3261 57.0146 89.2686 57.4937 89.3883 58.0926C89.5656 59.3479 89.8052 60.6031 89.9872 61.8009C90.3466 64.1916 90.6436 66.5824 90.9454 69.0354C91.482 72.8587 92.0234 76.7491 92.56 80.5723C93.1014 84.2231 93.5183 87.8692 94.1171 91.5152C95.0131 96.8956 95.9713 102.338 96.9295 107.719C96.9918 108.198 97.1116 108.677 97.2888 109.453ZM160.914 163.563C163.372 160.995 165.643 158.485 167.799 155.855C168.82 154.657 169.237 153.282 169.237 151.725C169.237 148.198 168.997 144.672 168.82 141.141C168.757 140.427 168.7 139.709 168.58 138.99C168.518 138.693 168.46 138.334 168.278 138.037C166.664 134.985 164.925 131.995 162.831 129.302C160.201 125.958 157.024 123.203 153.316 121.052C150.8 119.62 148.108 118.661 145.295 118.245C144.697 118.125 144.155 118.182 143.676 118.604C143.077 119.141 142.363 119.62 141.884 120.276C140.686 121.709 139.426 123.146 138.348 124.698C135.057 129.422 133.265 134.688 133.145 140.485C133.083 142.876 133.323 145.209 133.682 147.6C134.338 151.964 135.656 156.209 137.572 160.219C137.932 160.995 138.411 161.714 138.89 162.548C146.254 161.772 153.613 161.834 160.914 163.563ZM125.542 159.98C125.12 159.86 124.881 159.74 124.584 159.678C121.829 159.141 119.079 158.542 116.324 158.063C112.85 157.469 109.319 156.87 105.851 156.449C102.736 156.032 99.5646 155.735 96.4504 155.495C93.5183 155.256 90.5238 155.136 87.5917 155.074C83.342 155.016 79.1546 155.256 74.9049 155.495C70.1138 155.792 65.3275 156.391 60.5987 157.11C59.698 157.23 58.8021 157.469 57.9014 157.646C57.6043 158.964 57.7241 160.157 57.6043 161.355C57.4845 162.49 57.427 163.683 57.3647 164.824C57.245 166.017 57.1875 167.214 57.0677 168.35C57.4845 168.709 57.9636 168.647 58.3805 168.647C61.9163 168.829 65.4473 169.006 68.9783 169.126C73.228 169.308 77.4154 169.308 81.6651 169.246C86.9353 169.188 92.1432 168.709 97.3511 167.933C101.122 167.392 104.95 166.855 108.72 166.318C112.251 165.839 115.725 165.36 119.256 164.824C120.574 164.641 121.829 164.282 123.089 163.923C123.865 163.683 124.526 163.266 124.881 162.49C125.12 161.834 125.48 160.995 125.542 159.98ZM90.7634 243.268C90.1645 243.33 89.8052 243.268 89.3883 243.388C82.6233 244.585 75.9206 245.841 69.2179 247.038C62.2133 248.351 55.2088 249.726 48.2665 251.403C41.9231 252.955 35.6372 254.81 29.5334 257.263C25.5807 258.815 21.7526 260.549 18.1593 262.82C16.0656 264.138 15.8261 264.315 16.3627 267.128C16.4824 267.904 16.9041 268.263 17.6227 268.32C18.5762 268.44 19.5344 268.503 20.4926 268.742C22.227 269.101 23.8463 268.8 25.4609 268.143C27.1378 267.487 28.8147 266.826 30.4916 266.289C38.6316 263.539 46.8914 261.268 55.271 259.352C60.2394 258.216 65.2652 257.263 70.2959 256.664C72.8687 256.362 75.384 256.065 77.9568 255.825C82.0867 255.409 86.1544 255.107 90.2843 254.987C90.5861 254.987 90.8257 254.929 91.1227 254.867C91.0652 250.982 90.8832 247.216 90.7634 243.268ZM42.4597 159.438C42.4597 159.141 42.4597 158.902 42.4597 158.724C42.4022 157.048 42.1004 155.433 41.6835 153.818C39.9492 147.063 36.5331 141.323 31.7468 136.302C28.7524 133.193 25.1639 130.917 21.034 129.484C20.7944 129.422 20.4926 129.183 20.1955 129.484C20.3153 130.021 20.4926 130.562 20.6124 131.099C21.2735 134.266 21.5706 137.438 21.6904 140.605C21.9922 147.6 21.8724 154.595 21.3933 161.532C21.331 162.188 21.331 162.907 21.0915 163.563C20.6124 163.266 20.6746 162.787 20.6124 162.37C20.4351 159.199 20.253 156.089 20.0758 152.922C19.8937 149.516 19.7739 146.167 19.5967 142.756C19.4769 140.787 19.2948 138.813 19.175 136.839C19.0553 134.745 18.9978 132.651 18.878 130.62C18.878 130.083 18.878 129.484 18.878 128.948C18.3989 128.646 17.9198 128.646 17.4407 128.886C15.8836 129.662 14.566 130.74 14.1492 132.532C13.9671 133.25 13.8474 133.969 13.7899 134.688C13.488 137.615 13.6078 140.485 13.7276 143.417C13.8474 145.865 14.0869 148.261 14.4462 150.651C15.347 156.391 17.1436 161.834 19.4769 167.152C19.5344 167.272 19.6541 167.392 19.7164 167.511C21.5706 166.735 23.3672 165.959 25.2214 165.24C27.0755 164.522 28.9345 163.803 30.7886 163.089C32.7051 162.37 34.6215 161.652 36.5331 161.053C38.4496 160.459 40.4235 159.98 42.4597 159.438ZM128.416 123.088C128.953 122.547 129.312 122.25 129.672 121.891C131.349 120.334 133.145 118.958 135.239 117.943C138.171 116.448 141.285 115.849 144.577 116.151C148.108 116.448 151.399 117.583 154.451 119.38C157.982 121.474 161.096 124.042 163.789 127.214C165.643 129.484 167.2 131.938 168.7 134.448C169.476 135.823 170.195 137.136 170.971 138.511C171.393 139.23 171.929 140.006 172.47 140.667C173.548 141.922 174.981 142.579 176.72 142.636C178.455 142.698 180.131 142.401 181.746 142.042C182.762 141.802 183.303 141.141 183.543 140.125C183.662 139.646 183.662 139.172 183.662 138.693C183.662 135.104 183.121 131.636 181.626 128.349C178.038 120.156 171.991 114.417 163.732 111.187C156.727 108.437 149.363 107.541 141.884 107.661C141.463 107.661 140.984 107.719 140.567 107.781C138.348 108.078 136.374 108.916 134.458 110.052C132.427 111.245 130.51 112.505 128.536 113.698C127.995 114.057 127.516 114.417 126.979 114.833C127.458 117.526 127.875 120.156 128.416 123.088ZM51.9173 150.709C52.5162 150.709 53.0576 150.709 53.6517 150.651C55.3908 150.469 57.0054 149.995 58.5002 149.157C59.2189 148.735 59.6405 148.141 59.6405 147.24C59.6405 146.704 59.6405 146.167 59.5782 145.626C59.1614 142.756 58.5002 140.006 57.245 137.375C53.5319 129.662 48.0269 123.625 40.3037 119.797C34.7413 117.047 28.8147 115.312 22.6486 114.594C20.0135 114.297 17.3832 114.417 14.8679 115.073C11.1548 116.089 7.74352 117.823 4.45204 119.859C3.97293 120.156 3.55611 120.635 3.19678 121.052C3.077 121.172 2.95723 121.412 3.01472 121.594C3.1345 122.188 3.25427 122.729 3.43633 123.266C3.55611 123.563 3.79567 123.682 4.155 123.682C4.50954 123.682 4.93115 123.563 5.29048 123.505C6.36848 123.323 7.50396 123.088 8.58196 122.969C11.8734 122.609 15.1649 122.729 18.4564 123.146C26.2994 124.162 32.8248 127.63 37.913 133.787C39.7671 136.063 41.3817 138.453 42.819 141.026C43.9593 143.058 45.0948 145.089 46.2303 147.12C46.5896 147.782 47.0112 148.438 47.428 149.094C48.0892 150.11 49.0426 150.651 50.2404 150.651C50.7195 150.709 51.3184 150.709 51.9173 150.709ZM104.892 245.065C104.71 246.258 104.83 247.455 104.773 248.653C104.773 249.789 104.773 250.982 104.83 252.117C104.892 253.315 104.653 254.513 105.012 255.768C105.429 255.706 105.731 255.706 106.09 255.706C107.585 255.528 109.08 255.346 110.579 255.169C112.73 254.987 114.949 254.987 117.1 255.049C120.99 255.169 124.881 255.528 128.714 256.127C133.859 256.903 138.947 258.096 143.916 259.414C148.644 260.669 153.373 262.044 158.102 263.362C163.612 264.914 169.179 266.351 174.622 268.143C174.924 268.263 175.163 268.32 175.46 268.32C176.897 268.32 178.272 268.32 179.71 268.263C180.131 268.263 180.548 268.143 180.85 267.726C180.611 265.451 179.47 263.956 177.496 262.94C176.778 262.581 176.059 262.164 175.283 261.805C170.731 259.711 166.122 257.857 161.336 256.242C154.873 254.033 148.285 252.179 141.582 250.565C133.979 248.711 126.438 246.799 118.657 245.601C114.886 245.065 111.116 244.763 107.345 244.585C106.507 244.763 105.668 244.705 104.892 245.065ZM46.1728 120.995C46.2303 120.755 46.2926 120.635 46.2926 120.516C46.1728 119.078 45.9907 117.646 45.8134 116.151C45.7512 115.672 45.5116 115.375 45.1523 115.073C44.0791 114 42.9388 112.922 41.9231 111.724C40.0642 109.515 38.21 107.24 36.4134 104.969C31.2054 98.5102 26.0023 92.0518 21.034 85.4161C19.8362 83.8015 18.5187 82.3067 17.2634 80.7544C16.8418 80.2753 16.425 79.7962 16.0033 79.3794C15.2847 78.5984 14.3887 78.1241 13.3682 77.8845C12.5346 77.7025 11.6339 77.5252 10.7954 77.4054C10.5559 77.3432 10.3163 77.2857 10.0193 77.5827C10.0768 78.2439 10.1966 78.9577 10.2588 79.6189C10.4984 82.1294 10.7379 84.64 10.9152 87.1505C11.2745 91.4577 11.5764 95.7601 11.9932 100.067C12.3525 104.25 12.8316 108.437 13.2533 112.682C13.2533 112.922 13.4305 113.219 13.488 113.401C14.8679 113.161 16.1854 112.922 17.4407 112.682C17.5604 112.682 17.6802 112.505 17.8 112.443C17.3832 111.187 17.2634 109.87 17.2011 108.557C17.1436 107.12 17.0238 105.625 16.8418 104.192C16.3052 99.3486 15.644 94.5671 15.1074 89.7233C14.8679 87.093 14.6858 84.4004 14.6858 81.7078C14.6858 81.4683 14.566 81.1712 14.8679 80.9317C14.9876 81.2335 15.0451 81.4683 15.1074 81.7078C15.644 84.4579 16.2429 87.2128 16.722 90.0204C17.0813 92.2913 17.3209 94.5671 17.6802 96.7758C18.3366 101.14 19.0553 105.505 19.175 109.932C19.175 110.349 19.2373 110.828 19.2373 111.245C19.2373 111.666 19.0553 112.083 19.175 112.505C28.9345 112.922 37.913 115.792 46.1728 120.995ZM77.655 190.053C77.4777 189.934 77.3579 189.814 77.2382 189.756C75.6236 188.918 73.9467 188.079 72.3273 187.184C69.8168 185.808 67.3589 184.314 64.8484 182.939C61.1353 180.965 57.1875 179.35 53.0576 178.512C52.0371 178.334 51.0214 178.215 50.0631 178.095C49.584 178.037 49.2247 178.215 48.9277 178.574C48.7456 178.751 48.6258 178.933 48.4485 179.111C46.8292 180.965 45.7512 183.116 45.0948 185.511C44.7929 186.527 44.4959 187.543 44.0791 188.559C43.4179 190.116 42.1626 191.012 40.4858 191.189C39.5276 191.309 38.5693 191.371 37.5536 191.371C33.783 191.189 30.0125 190.949 26.2419 190.293C26.0598 190.293 25.8826 190.116 25.7628 190.413C26.0598 190.949 26.5389 191.251 27.0755 191.491C27.8565 191.85 28.6949 192.205 29.5334 192.387C30.8509 192.626 32.2259 192.803 33.601 192.866C36.835 192.986 40.0067 192.923 43.2406 193.043C45.6937 193.105 48.0892 193.163 50.48 193.402C54.4326 193.819 58.2607 194.897 62.0361 196.334C64.9682 197.408 67.7183 198.783 70.4157 200.34C71.7284 201.116 73.046 201.772 74.3635 202.491C75.0247 202.85 75.7385 203.147 76.6393 203.147C76.8165 201.653 76.759 200.22 76.8788 198.783C76.9986 197.35 77.1759 195.913 77.2382 194.418C77.3579 192.866 77.5975 191.428 77.655 190.053ZM39.5276 189.215C41.2044 189.215 42.0429 188.501 42.4597 187.126C42.6992 186.345 43.0011 185.569 43.2406 184.793C43.9593 181.861 45.5116 179.35 47.5478 177.137C48.5683 176.001 49.6415 174.985 50.7195 173.912C51.6777 172.954 52.636 171.996 53.5942 170.98C54.3703 170.204 54.7919 169.246 54.9692 168.11C55.1513 166.553 55.3908 165.058 55.5106 163.506C55.6879 160.037 55.8076 156.511 55.9274 153.042C55.9274 152.803 55.8699 152.563 55.8076 152.324C55.271 152.386 54.8494 152.443 54.4326 152.443C53.0576 152.506 51.6202 152.625 50.2404 152.625C48.3288 152.625 46.7717 151.725 45.6937 150.11C45.1523 149.276 44.6157 148.381 44.1366 147.48C42.7615 145.151 41.444 142.756 40.0642 140.427C38.5693 137.917 36.835 135.584 34.861 133.432C31.8043 130.141 28.096 127.808 23.7841 126.375C20.7944 125.359 17.6802 124.938 14.5085 124.698C12.5346 124.583 10.5559 124.641 8.52446 124.88C8.04536 124.938 7.62374 125.12 7.20691 125.479C6.06664 126.433 5.10842 127.511 4.33227 128.708C3.67589 129.724 3.31656 130.797 3.25427 131.995C3.25427 132.172 3.1345 132.412 3.49383 132.474C3.73338 132.115 3.97293 131.698 4.21249 131.276C5.2282 129.662 6.54574 128.287 8.16513 127.271C9.30062 126.552 10.4984 126.078 11.8734 126.078C13.2533 126.078 14.6283 126.016 15.9458 126.193C21.6329 127.031 26.7785 129.245 31.0905 133.073C37.4339 138.693 41.6835 145.688 43.6575 153.938C44.4384 157.11 44.6157 160.277 44.2564 163.506C43.7772 167.574 42.522 171.459 40.7253 175.167C40.3037 176.001 39.8869 176.84 39.4701 177.616C38.8712 178.813 38.6316 180.069 38.7514 181.444C38.9287 183.355 39.0484 185.329 39.1682 187.246C39.288 187.96 39.4078 188.559 39.5276 189.215ZM51.2609 176.183C51.8598 176.303 52.3389 176.423 52.818 176.48C55.3285 176.84 57.7241 177.616 60.0573 178.512C62.7499 179.59 65.385 180.845 67.9003 182.282C70.2959 183.657 72.6866 185.032 75.0822 186.465C77.7173 188.022 80.5871 188.918 83.6438 189.095C85.8573 189.277 88.0708 189.454 90.3466 189.574C92.1432 189.694 93.9351 189.814 95.7317 189.934C96.2108 189.934 96.69 190.116 97.1691 189.814C97.1116 188.975 96.872 188.199 96.6325 187.423C94.5963 181.386 90.6436 177.319 84.2427 175.944C81.9047 175.407 79.5714 175.048 77.1759 174.808C72.6291 174.267 68.0776 173.792 63.5884 173.011C61.1976 172.595 58.8021 172.116 56.5886 171.1C56.4688 171.038 56.2868 171.038 56.0472 170.98C54.7297 172.954 52.9378 174.449 51.2609 176.183ZM183.064 177.975C182.584 177.558 182.225 177.137 181.808 176.84C180.548 175.881 179.293 174.866 177.975 173.97C174.502 171.579 170.731 169.605 166.903 167.871C161.753 165.48 156.305 164.402 150.681 164.105C144.936 163.865 139.249 164.282 133.562 165.121C130.63 165.537 127.698 165.839 124.703 165.777C124.287 165.777 123.865 165.839 123.448 165.959C121.829 166.318 120.214 166.735 118.6 166.975C115.725 167.454 112.85 167.751 109.918 168.168C109.621 168.23 109.319 168.35 108.783 168.47C109.142 168.589 109.262 168.589 109.382 168.647C112.85 168.767 116.262 168.829 119.735 168.589C125.063 168.287 130.39 167.813 135.718 167.751C139.369 167.751 143.02 167.751 146.613 168.407C150.441 169.068 154.034 170.381 157.264 172.595C159.899 174.387 162.232 176.48 164.33 178.871C165.763 180.548 167.023 182.282 167.919 184.314C167.981 184.491 168.159 184.611 168.221 184.73C171.033 184.017 180.85 179.59 183.064 177.975ZM36.7727 180.965C36.1163 180.965 35.5749 180.965 35.0383 180.965C34.0801 180.965 33.0644 181.027 32.1062 180.965C28.6949 180.725 25.7005 179.532 23.305 177.017C22.227 175.881 21.331 174.626 20.4926 173.313C19.2373 171.22 18.097 169.126 17.1436 166.855C15.4667 162.85 14.1492 158.782 13.191 154.537C11.8734 148.855 11.5141 143.115 11.6339 137.318C11.6962 135.881 11.8159 134.386 11.9932 132.953C12.1753 131.339 12.8316 129.844 14.1492 128.766C14.269 128.646 14.3887 128.469 14.566 128.287C14.3265 128.167 14.2067 128.047 14.0294 128.047C11.8734 127.808 9.83722 128.287 8.22262 129.782C7.56625 130.38 6.90508 130.979 6.42597 131.698C5.53004 133.011 4.74909 134.448 3.97293 135.823C3.49383 136.719 3.43633 137.615 3.6136 138.631C4.33227 142.281 5.2282 145.808 6.2487 149.334C8.16513 155.792 10.9152 161.891 13.7899 167.933C16.6645 173.97 20.0135 179.772 23.1852 185.689C23.305 185.928 23.4247 186.106 23.5445 186.288C24.1434 187.303 25.0441 187.902 26.1796 188.199C26.6587 188.319 27.1378 188.439 27.6169 188.501C30.5491 188.798 33.4812 189.095 36.4756 189.335C36.7152 189.335 37.0122 189.277 37.3716 189.215C37.2518 186.465 37.0122 183.835 36.7727 180.965ZM92.7421 244.403C92.7421 245.122 92.7421 245.601 92.7421 246.08C92.9194 249.789 93.1589 253.435 93.2787 257.143C93.3985 260.31 93.341 263.419 93.3985 266.591C93.4608 270.117 93.5758 273.643 93.6955 277.17C93.6955 277.768 93.8153 278.31 93.9351 278.904C94.0549 279.445 94.4142 279.742 94.9556 279.805C96.0336 279.862 97.1116 279.924 98.1273 279.924C99.4448 279.862 100.7 279.685 102.018 279.565C102.617 279.503 102.856 279.144 102.914 278.607C102.976 278.008 103.033 277.471 103.033 276.873C103.033 275.378 103.033 273.883 103.033 272.388C102.976 266.826 102.914 261.268 102.856 255.648C102.856 255.528 102.856 255.346 102.856 255.226C102.794 251.877 102.736 248.533 102.736 245.184C102.736 244.945 102.674 244.763 102.617 244.403C99.3825 245.362 96.1534 245.601 92.7421 244.403ZM91.1227 218.278C90.5238 218.637 90.2843 219.111 90.1645 219.653C90.0447 220.189 89.9872 220.788 89.9872 221.387C89.9872 223.002 90.107 224.554 90.1645 226.169C90.2843 230.054 90.4041 233.94 90.5238 237.768C90.5238 238.304 90.5861 238.846 90.5861 239.382C90.6436 240.757 91.3048 241.716 92.6223 242.252C94.4765 243.028 96.3929 243.45 98.4243 243.268C99.9814 243.148 101.481 242.789 102.914 242.075C103.695 241.716 104.111 241.117 104.174 240.278C104.231 239.684 104.293 239.143 104.293 238.544C104.293 234.84 104.293 231.19 104.174 227.486C104.111 225.033 103.872 222.58 103.695 220.069C103.695 219.772 103.632 219.471 103.575 219.231C103.393 218.455 103.096 218.278 102.377 218.215C101.778 218.158 101.241 218.397 100.7 218.575C97.4086 219.533 94.2944 220.012 91.1227 218.278ZM78.7953 203.449C79.1546 203.507 79.5139 203.626 79.8733 203.689C81.186 203.809 82.5036 203.986 83.7636 204.106C87.0551 204.465 90.3466 204.585 93.638 204.642C93.9351 204.642 94.2944 204.585 94.5963 204.522C95.1329 203.267 95.612 202.132 96.0911 200.934C96.9918 198.845 97.5284 196.632 97.6482 194.298C97.7105 193.58 97.6482 192.866 97.4086 192.147C97.1691 192.085 96.9295 192.027 96.69 192.027C93.5183 191.788 90.2843 191.61 87.1126 191.428C85.4357 191.309 83.7013 191.131 82.0245 190.949C81.186 190.892 80.4099 190.71 79.6337 190.59C79.1546 192.564 78.4934 201.892 78.7953 203.449ZM171.21 167.631C174.325 165.24 177.257 162.73 179.772 159.798C181.449 157.824 182.287 155.553 182.225 152.985C182.225 150.292 182.287 147.542 182.287 144.85C182.287 144.61 182.168 144.313 182.105 144.016C180.908 144.193 179.83 144.37 178.694 144.49C176.002 144.912 173.548 144.433 171.512 142.579C171.393 142.459 171.273 142.281 170.913 142.459C170.913 142.698 170.913 143.058 170.913 143.355C170.971 145.985 171.033 148.615 171.21 151.188C171.33 153.641 170.612 155.735 168.997 157.584C167.2 159.501 165.523 161.532 163.789 163.506C163.549 163.746 163.43 164.043 163.19 164.282C165.883 165.298 168.46 166.438 171.21 167.631ZM168.7 186.647C168.757 186.944 168.82 187.184 168.82 187.423C169.117 188.918 169.237 190.413 169.179 191.908C169.059 193.762 168.7 195.554 168.159 197.35C168.101 197.59 168.039 197.887 167.981 198.246C168.341 198.184 168.58 198.184 168.82 198.126C171.69 197.35 174.502 196.449 177.257 195.314C178.038 195.017 178.752 194.658 179.47 194.241C180.788 193.58 181.689 192.506 182.048 191.069C182.287 190.116 182.584 189.095 182.762 188.079C183.121 185.751 183.48 183.355 183.84 181.027C183.902 180.725 183.96 180.366 183.6 180.069C178.871 182.761 173.846 184.73 168.7 186.647ZM136.494 162.49C136.374 162.251 136.255 162.011 136.135 161.714C133.265 155.974 131.588 149.875 131.229 143.417C130.927 138.631 131.588 134.026 133.385 129.604C134.999 125.656 137.333 122.13 140.265 119.021C140.447 118.781 140.864 118.661 140.744 118.245C139.307 118.302 137.932 118.719 136.197 119.557C133.265 120.995 130.927 123.203 128.776 125.479C128.776 125.838 128.714 126.136 128.776 126.433C129.25 130.261 129.37 134.089 129.49 137.917C129.609 142.698 129.432 147.422 128.953 152.146C128.896 152.803 128.953 153.402 129.193 154C130.328 156.808 131.468 159.678 132.604 162.49C132.666 162.73 132.843 162.85 133.026 163.089C134.161 162.907 135.296 162.787 136.374 162.61C136.317 162.73 136.374 162.61 136.494 162.49ZM20.8519 169.605C21.5131 171.397 23.0079 173.673 24.1434 174.626C29.4711 172.058 35.1006 170.381 41.0224 169.543C41.8608 167.032 42.4022 164.522 42.4597 161.954C42.4597 161.834 42.3399 161.714 42.2824 161.594C37.913 162.251 24.565 167.214 20.8519 169.605ZM94.2944 285.003C94.2944 285.482 94.2369 285.961 94.2369 286.378C94.3567 288.951 94.534 291.524 94.716 294.092C94.7735 294.633 94.8358 295.17 94.9556 295.706C95.1329 296.784 95.5545 297.201 96.69 297.383C98.3668 297.623 100.101 297.503 101.778 297.144C102.914 296.904 103.153 296.545 103.215 295.587C103.215 295.227 103.335 294.93 103.335 294.571C103.335 292.06 103.393 289.55 103.335 286.977C103.335 286.258 103.273 285.544 103.033 284.883C101.658 284.586 97.0493 284.644 94.2944 285.003ZM84.1804 242.195C83.8834 242.132 83.5816 242.075 83.2222 242.013C81.0662 241.893 78.9725 241.716 76.8165 241.716C71.072 241.653 65.385 241.893 59.698 242.731C57.4845 243.028 55.271 243.45 53.1773 244.169C52.4587 244.403 51.74 244.763 51.0788 245.122C50.5997 245.362 50.1829 245.778 50.0631 246.32C49.8236 247.158 49.6415 247.992 49.7613 248.83C49.9434 248.888 50.0009 248.95 50.1206 248.95C61.3749 246.377 72.8064 244.346 84.1804 242.195ZM91.9612 216.304C92.7996 217.08 93.6955 217.319 94.716 217.377C96.2731 217.559 97.8302 217.319 99.3251 216.903C100.94 216.481 101.122 216.241 101.122 214.569C101.122 212.356 101.059 210.142 101.002 207.871C101.002 207.694 100.94 207.512 100.882 207.273C100.58 207.215 100.283 207.215 99.9814 207.215C98.9034 207.153 97.8302 207.153 96.8097 207.095C96.3306 207.095 95.794 207.033 95.3724 206.856C94.2369 206.199 93.0391 206.496 91.7216 206.616C91.7839 209.903 91.9612 213.132 91.9612 216.304ZM147.868 250.263C147.509 249.008 147.15 247.934 146.733 246.976C146.493 246.497 146.072 246.138 145.535 245.96C144.874 245.721 144.275 245.481 143.619 245.362C140.926 244.763 138.229 244.169 135.479 243.747C132.307 243.21 129.135 242.851 125.959 242.789C123.506 242.731 120.99 242.731 118.537 242.789C117.042 242.789 115.605 242.971 114.11 243.21C114.35 243.33 114.589 243.33 114.829 243.33C117.819 243.747 120.813 244.106 123.745 244.705C128.896 245.778 134.041 246.976 139.187 248.174C141.942 248.768 144.754 249.487 147.868 250.263ZM179.949 273.763C178.871 273.763 177.975 274.065 177.137 274.721C174.502 276.753 174.564 280.94 177.257 282.914C179.111 284.289 181.689 284.05 183.361 282.373C185.277 280.461 185.339 277.232 183.48 275.258C182.465 274.242 181.329 273.763 179.949 273.763ZM39.1682 210.142C38.991 210.502 38.8089 210.861 38.6891 211.22C37.6111 214.689 36.5331 218.158 35.4599 221.627C35.3401 221.924 35.3976 222.283 35.3401 222.58C37.0745 223.476 39.6473 224.137 41.0224 223.955C41.1421 223.596 41.3242 223.179 41.3817 222.762C42.1004 219.231 42.7615 215.705 43.4802 212.236C43.5377 211.819 43.6575 211.398 43.3604 210.861C42.0429 210.444 40.663 210.085 39.1682 210.142ZM22.3467 278.31C22.3467 276.815 21.9299 275.675 21.034 274.779C20.0758 273.825 18.9355 273.404 17.5604 273.643C14.1492 274.242 12.4723 278.487 14.3887 281.3C15.347 282.732 17.4407 283.81 19.6541 282.555C21.4508 281.654 22.2892 280.102 22.3467 278.31ZM40.0067 171.876C37.0745 171.876 27.6744 174.688 25.5232 176.183C27.4971 178.751 33.3039 179.652 36.9547 178.751C37.4913 177.558 38.0327 176.423 38.5693 175.287C39.1107 174.209 39.7671 173.131 40.0067 171.876ZM43.1784 208.648C43.3604 208.173 43.5377 207.752 43.6575 207.392C43.8395 206.913 44.0168 206.496 44.1989 206.017C44.5534 205.184 45.2146 204.642 46.1728 204.465C46.6519 204.403 47.131 204.283 47.6101 204.283C49.2822 204.163 50.9016 204.043 52.5785 203.986C57.8439 203.866 63.0518 203.746 68.3172 203.626C69.4574 203.626 70.5354 203.569 71.6709 203.507C71.6709 203.507 71.7284 203.449 71.7907 203.329C71.1918 202.788 70.5354 202.429 69.6347 202.429C67.0619 202.429 64.4891 202.429 61.9163 202.371C56.2293 202.314 50.5423 202.491 44.9127 203.028C44.3186 203.09 43.6575 203.09 43.1209 203.449C42.4597 204.944 41.8033 207.455 41.741 208.408C42.1626 208.59 42.6418 208.648 43.1784 208.648ZM12.4148 282.133C10.8577 277.888 11.7537 274.602 15.4045 272.211C14.269 271.612 13.191 271.55 12.113 272.029C9.83722 273.044 8.22262 275.795 8.46218 278.31C8.58196 279.805 9.23833 280.878 10.6757 281.477C11.1548 281.654 11.6339 281.836 12.4148 282.133ZM185.459 283.034C187.433 282.195 188.511 281.06 188.87 279.326C189.349 276.935 188.511 274.899 186.777 273.284C185.876 272.45 184.678 272.211 183.303 272.57C186.954 275.44 187.61 278.784 185.459 283.034ZM126.5 163.746C127.875 163.865 129.193 163.626 130.63 163.386C130.328 162.73 130.089 162.069 129.849 161.475C129.552 160.813 129.312 160.157 129.015 159.438C128.776 158.844 128.656 158.183 128.115 157.527C127.875 158.662 127.698 159.678 127.396 160.636C127.219 161.714 126.859 162.73 126.5 163.746ZM175.34 273.404C176.658 272.747 177.856 272.091 179.173 271.43C179.111 271.075 179.111 270.773 179.053 270.414C177.678 270.357 176.418 270.294 175.101 270.476C175.101 271.55 175.043 272.508 175.34 273.404ZM17.4407 270.357C17.6802 270.836 17.7425 271.013 17.9198 271.133C18.3989 271.372 18.9355 271.612 19.4769 271.852C20.0135 272.091 20.5549 272.268 21.0915 272.45C21.2735 272.508 21.5131 272.628 21.7526 272.685C21.9299 272.029 21.9922 271.492 21.7526 270.836C20.4351 270.716 19.1175 270.534 17.4407 270.357ZM55.2088 261.565C53.8337 261.627 50.9591 262.341 50.1206 262.82C50.9591 263.419 51.74 263.601 52.6982 263.362C53.6517 263.06 54.6099 262.581 55.2088 261.565ZM149.962 263.299C148.467 262.643 146.551 262.106 145.655 262.164C146.733 263.601 147.988 263.956 149.962 263.299ZM57.4845 260.846C57.3073 261.565 57.1875 262.106 56.9479 262.883C57.7864 262.404 58.323 261.867 58.5002 261.086C58.5002 261.028 58.4427 260.909 58.3805 260.789C58.1409 260.789 57.8439 260.789 57.4845 260.846ZM97.3511 281.894C97.3511 282.732 97.4086 282.852 97.8877 282.852C98.0075 282.852 98.1848 282.852 98.3046 282.852C98.6064 282.794 98.7262 282.612 98.6639 282.315C98.6639 282.076 98.5441 281.836 98.2471 281.836C98.0075 281.836 97.6482 281.894 97.3511 281.894ZM143.077 262.404C143.317 261.867 143.139 261.508 142.838 261.268C142.718 261.148 142.421 261.148 141.942 261.086C142.483 261.627 142.78 261.987 143.077 262.404Z" fill="#23A6F0"/>
</svg>
