<svg width="94" height="35" viewBox="0 0 94 35" fill="none" xmlns="http://www.w3.org/2000/svg">
<path id="Vector" fill-rule="evenodd" clip-rule="evenodd" d="M24.8322 1.59831H34.8877V34.038H24.8322V1.59831ZM0.705078 34.0399V1.59831H23.0968V9.23479H10.8188V14.7888H21.0586V22.2981H10.8188V34.038H0.705078V34.0399ZM58.2533 10.7894V2.89674C54.2879 0.925976 50.3507 0.529126 47.1317 0.999182C44.2381 1.42108 41.7374 2.68869 40.1561 4.51882C39.9756 4.72688 39.9098 4.83669 39.8459 5.10639C39.4754 6.68609 39.8459 8.49311 41.3688 9.86089C43.3713 11.8085 46.7444 13.3035 50.2567 14.9256C54.5474 16.9079 57.6949 18.3701 59.53 21.6528C59.4661 21.383 59.3927 21.1172 59.3081 20.8552C58.8606 19.4547 58.054 18.1427 56.8488 17.0235C54.7937 15.4149 53.455 14.9525 49.5554 13.2245C48.604 12.8431 48.1001 12.3846 47.7861 12.0127C46.9437 11.0206 47.1524 9.50642 48.1452 8.69731C49.1361 7.89013 50.8941 7.71867 53.1522 8.19836C54.7542 8.53934 56.4163 9.26947 58.2533 10.7933M39.5055 5.32408C38.8136 6.25649 38.1292 7.31797 38.1724 8.52586C38.2101 9.61816 38.6763 10.6835 39.8684 11.8317C41.869 13.7793 46.1352 15.7886 49.9183 17.507C53.2444 19.0174 56.7115 20.7165 58.5748 22.7797C59.1615 23.4309 59.5375 24.1976 59.7688 25.105C59.8289 24.4577 59.8308 23.8104 59.7725 23.1689C59.7556 22.9782 59.7255 22.8664 59.6409 22.693C58.6933 20.755 56.4107 19.4855 54.3537 18.397C50.2379 16.2201 44.349 14.3072 40.927 11.2884C39.8026 10.2982 39.0016 9.25984 38.9133 7.84196C38.8625 7.01937 39.0411 6.16594 39.5055 5.32601M37.6761 9.64513C37.5068 10.6064 37.3113 11.7893 37.7306 12.7063C38.2533 13.8544 39.2968 14.6963 40.158 15.2954C42.6794 17.0504 47.0528 18.869 50.1965 20.3562C53.4982 21.9186 55.5307 22.9724 57.3941 25.0356C58.3285 26.0701 59.0092 27.5362 58.1988 29.6899C58.7309 28.8673 59.1276 27.985 59.3946 27.0719C59.4397 26.9178 59.4247 26.8311 59.3946 26.6712C58.6369 22.6584 52.8251 20.3505 49.5723 18.8054C45.4903 16.8674 41.2729 15.0354 39.2799 12.949C38.3078 11.9318 37.8077 10.932 37.6761 9.6432M37.6704 13.2418C37.772 13.76 37.9186 14.2686 38.1123 14.7753C38.8117 16.6035 39.9925 17.9732 41.5813 19.0809C42.7884 19.9209 44.2005 20.5585 46.2405 21.437C47.2502 21.8724 48.5927 22.2345 49.3166 23.1169C49.6325 23.5021 49.8092 23.9433 49.8694 24.3922C50.08 25.995 48.7149 27.7249 46.4361 27.6055C43.1739 27.698 40.6732 26.6904 37.411 24.3074V32.805C41.1112 33.9975 43.407 34.8085 47.301 34.8201C51.1498 34.8317 54.553 33.7991 57.0481 31.1329C57.4241 30.7302 57.646 30.4278 57.725 29.8498C58.0747 27.3031 56.2979 25.444 54.1318 24.0319C52.5919 23.0282 50.9035 22.25 49.5234 21.6123C46.4511 20.1886 43.345 18.8228 41.2447 17.3722C39.9004 16.4417 38.4695 15.0392 37.6704 13.2438M61.3632 34.0399V1.59831H71.4187V16.093C71.4055 16.3261 71.5842 16.1758 71.6387 16.0699L80.7484 1.59831H91.7778L82.0458 16.3049L93.7051 34.038H82.2902L71.5183 17.5513H71.4168V34.038H61.3613L61.3632 34.0399Z" fill="#E0131C"/>
</svg>
