<svg width="152" height="52" viewBox="0 0 152 52" fill="none" xmlns="http://www.w3.org/2000/svg">
<g id="Group 7">
<path id="Vector" d="M70.05 16.8812H64.2296V16.0236H70.05V16.8812Z" fill="#727176"/>
<path id="Vector_2" d="M55.7519 35.6571C54.107 35.6571 53.1791 35.296 52.4199 34.7995L52.7995 33.8517C53.4322 34.2579 54.2335 34.619 55.541 34.619C57.5234 34.619 58.8309 33.1747 58.8309 31.0082C58.8309 29.3383 57.9873 28.3905 55.8785 27.5329C53.2635 26.4948 52.5465 24.7797 52.5465 23.2C52.5465 20.853 54.107 18.8671 56.5955 18.8671C57.8608 18.8671 58.873 19.2282 59.5057 19.7247L59.1683 20.5822C58.62 20.2212 57.7343 19.8149 56.6798 19.8149C54.824 19.8149 53.8118 21.169 53.8118 23.2C53.8118 25.1408 55.1614 25.9532 56.5955 26.4948C59.6744 27.6683 60.1384 29.6542 60.1384 30.9631C60.1384 33.7615 58.2404 35.6571 55.7519 35.6571Z" fill="#727176"/>
<path id="Vector_3" d="M67.6459 22.3424C67.2663 20.9884 67.1819 20.3565 67.1819 20.3565H67.1397C67.1397 20.3565 67.0132 20.9884 66.5914 22.3424L64.5669 28.9771H69.6282L67.6459 22.3424ZM71.6105 35.4313L69.9234 29.8347H64.3139L62.5846 35.4313H61.4036L66.6758 19.0927H67.688L72.918 35.4313H71.6105Z" fill="#727176"/>
<path id="Vector_4" d="M79.1181 19.7698C75.9126 19.7698 75.1113 23.6514 75.1113 27.217C75.1113 30.7374 75.7861 34.619 79.1181 34.619C82.4923 34.619 83.1671 30.7374 83.1671 27.217C83.1671 23.6514 82.3658 19.7698 79.1181 19.7698ZM79.1181 35.6571C75.3222 35.6571 73.8459 31.9561 73.8459 27.2621C73.8459 22.6133 75.3222 18.8671 79.1181 18.8671C82.9562 18.8671 84.4324 22.6133 84.4324 27.2621C84.4324 31.9561 82.9562 35.6571 79.1181 35.6571Z" fill="#727176"/>
<path id="Vector_5" d="M92.657 35.6571C88.9876 35.6571 86.9209 31.8658 86.9209 27.2621C86.9209 22.7035 88.9454 18.8671 92.657 18.8671C94.0067 18.8671 94.9768 19.2282 95.6516 19.7698L95.1455 21.0336C94.6815 20.7176 93.9645 20.4017 92.9944 20.4017C90.0842 20.4017 89.0298 23.7868 89.0298 27.2621C89.0298 30.7826 90.1685 34.0323 92.9522 34.0323C93.8801 34.0323 94.5128 33.7614 95.1033 33.4004L95.6516 34.7995C94.9768 35.296 93.8801 35.6571 92.657 35.6571Z" fill="#727176"/>
<path id="Vector_6" d="M103.454 23.0194C103.075 21.7556 102.99 21.0335 102.99 21.0335H102.948C102.948 21.0335 102.864 21.7105 102.484 23.0194L100.671 29.2028H105.226L103.454 23.0194ZM106.997 35.4313L105.563 30.5568H100.333L98.857 35.4313H97.0012L102.189 19.0927H104.003L109.148 35.4313H106.997Z" fill="#727176"/>
<path id="Vector_7" d="M123.784 35.4313C123.742 35.2057 122.603 23.1999 122.603 23.1999C122.518 22.1618 122.476 21.2592 122.476 21.2592H122.434C122.434 21.2592 122.265 22.1618 122.012 23.1999C122.012 23.1999 118.849 35.1605 118.765 35.4313H117.415C117.331 35.2057 114.21 23.1548 114.21 23.1548C113.956 22.1618 113.788 21.2592 113.788 21.2592H113.746C113.746 21.2592 113.703 22.207 113.619 23.1548C113.619 23.1548 112.438 35.1605 112.438 35.4313H110.667L112.48 19.0927H114.631L117.71 30.9179C118.005 32.0011 118.09 32.7684 118.09 32.7684H118.132C118.132 32.7684 118.259 32.0011 118.512 30.963L121.675 19.1378H123.826L125.64 35.4765L123.784 35.4313Z" fill="#727176"/>
<path id="Vector_8" d="M128.128 35.4313V19.0927H130.153V35.4313H128.128Z" fill="#727176"/>
<path id="Vector_9" d="M133.189 35.4313V19.0927H135.214V33.9419H139.811V35.4313H133.189Z" fill="#727176"/>
<path id="Vector_10" d="M146.18 20.2663C143.396 20.2663 142.721 23.8319 142.721 27.1718C142.721 30.4666 143.312 34.0323 146.18 34.0323C149.048 34.0323 149.638 30.4666 149.638 27.1718C149.596 23.877 148.921 20.2663 146.18 20.2663ZM146.18 35.6571C142.215 35.6571 140.655 31.9109 140.655 27.2621C140.655 22.6133 142.215 18.8671 146.18 18.8671C150.145 18.8671 151.705 22.6584 151.705 27.2621C151.663 31.9109 150.102 35.6571 146.18 35.6571Z" fill="#727176"/>
<path id="Vector_11" d="M55.2458 11.104C53.5165 11.104 52.4199 9.25345 52.4199 6.86133C52.4199 4.51435 53.4744 2.61871 55.2036 2.61871C55.8785 2.61871 56.3424 2.79925 56.6376 3.07006L56.4268 3.47626C56.1737 3.29572 55.7941 3.11519 55.288 3.11519C53.6852 3.11519 53.0948 4.96569 53.0948 6.86133C53.0948 8.84724 53.7274 10.6075 55.288 10.6075C55.7941 10.6075 56.1315 10.4721 56.4689 10.2464L56.6798 10.6526C56.3846 10.9234 55.8363 11.104 55.2458 11.104Z" fill="#727176"/>
<path id="Vector_12" d="M57.8186 11.0137V2.75409H61.235V3.25056H58.4513V6.50023H60.9819V6.95157H58.4513V10.5172H61.235V11.0137H57.8186Z" fill="#727176"/>
<path id="Vector_13" d="M67.2241 11.0137L63.5968 4.33379C63.3016 3.79218 63.0485 3.25056 63.0485 3.25056H63.0064C63.0064 3.25056 63.0485 3.79218 63.0485 4.33379V11.0137H62.5002V2.75409H63.3016L66.8445 9.29856C67.1397 9.84017 67.3084 10.2012 67.3084 10.2012H67.3506C67.3506 10.2012 67.3084 9.79504 67.3084 9.25343V2.75409H67.8568V10.9685L67.2241 11.0137Z" fill="#727176"/>
<path id="Vector_14" d="M71.2309 3.25056V11.0137H70.5983V3.25056H68.9534V2.75409H72.8337V3.25056H71.2309Z" fill="#727176"/>
<path id="Vector_15" d="M75.6596 3.07006C75.1956 3.07006 74.8582 3.16032 74.6051 3.29573V6.95161C74.7317 6.99674 75.0691 7.04188 75.4065 7.04188C76.8405 7.04188 77.5154 6.31972 77.5154 5.05596C77.4732 3.70193 76.8827 3.07006 75.6596 3.07006ZM77.5154 11.0137L74.6473 7.08701H74.6051V11.0137H73.9725V3.07006C74.2677 2.84438 74.9004 2.61871 75.7017 2.61871C77.2623 2.61871 78.148 3.47627 78.148 5.01084C78.148 6.54541 77.1358 7.40295 75.533 7.35781V7.40295L78.2746 11.0137H77.5154Z" fill="#727176"/>
<path id="Vector_16" d="M81.9018 3.11519C80.2991 3.11519 79.8773 5.05596 79.8773 6.86133C79.8773 8.62157 80.2147 10.6075 81.9018 10.6075C83.5889 10.6075 83.9263 8.66671 83.9263 6.86133C83.9263 5.05596 83.5467 3.11519 81.9018 3.11519ZM81.9018 11.104C80.0038 11.104 79.2446 9.25345 79.2446 6.86133C79.2446 4.51435 80.0038 2.61871 81.9018 2.61871C83.8419 2.61871 84.559 4.51435 84.559 6.86133C84.559 9.25345 83.8419 11.104 81.9018 11.104Z" fill="#727176"/>
<path id="Vector_17" d="M91.2229 11.1039C89.7889 11.1039 88.9454 9.97556 88.9454 8.66667V2.75409H89.578V8.66667C89.578 9.84016 90.3794 10.5623 91.2229 10.5623C92.1087 10.5623 92.8679 9.84016 92.8679 8.66667V2.75409H93.4583V8.66667C93.5005 10.0207 92.657 11.1491 91.2229 11.1039Z" fill="#727176"/>
<path id="Vector_18" d="M99.8693 11.0137L96.2421 4.33379C95.9468 3.79218 95.6938 3.25056 95.6938 3.25056H95.6516C95.6516 3.25056 95.6938 3.79218 95.6938 4.33379V11.0137H95.1454V2.75409H95.9468L99.4897 9.29856C99.7849 9.84017 99.9537 10.2012 99.9537 10.2012H99.9958C99.9958 10.2012 99.9537 9.79504 99.9537 9.25343V2.75409H100.502V10.9685L99.8693 11.0137Z" fill="#727176"/>
<path id="Vector_19" d="M102.273 11.0137V2.75409H102.906V11.0137H102.273Z" fill="#727176"/>
<path id="Vector_20" d="M106.913 11.0137H106.365L104.087 2.79921H104.762L106.365 9.07289C106.491 9.6145 106.618 10.2012 106.618 10.2012H106.66C106.66 10.2012 106.786 9.6145 106.913 9.07289L108.516 2.75409H109.106L106.913 11.0137Z" fill="#727176"/>
<path id="Vector_21" d="M110.203 11.0137V2.75409H113.577V3.25056H110.835V6.50023H113.324V6.95157H110.835V10.5172H113.577V11.0137H110.203Z" fill="#727176"/>
<path id="Vector_22" d="M116.571 3.07006C116.108 3.07006 115.77 3.16032 115.517 3.29573V6.95161C115.644 6.99674 115.981 7.04188 116.318 7.04188C117.752 7.04188 118.427 6.31972 118.427 5.05596C118.427 3.70193 117.795 3.07006 116.571 3.07006ZM118.427 11.0137L115.559 7.08701H115.517V11.0137H114.884V3.07006C115.18 2.84438 115.812 2.61871 116.614 2.61871C118.174 2.61871 119.06 3.47627 119.06 5.01084C119.06 6.54541 118.048 7.40295 116.445 7.35781V7.40295L119.186 11.0137H118.427Z" fill="#727176"/>
<path id="Vector_23" d="M121.801 11.104C120.958 11.104 120.494 10.9234 120.114 10.6526L120.325 10.1561C120.621 10.3818 121.042 10.5624 121.717 10.5624C122.729 10.5624 123.362 9.8402 123.362 8.75698C123.362 7.89943 122.94 7.44809 121.886 6.99675C120.578 6.45513 120.199 5.64271 120.199 4.83029C120.199 3.6568 121 2.61871 122.223 2.61871C122.856 2.61871 123.362 2.79925 123.699 3.07006L123.531 3.5214C123.278 3.34086 122.814 3.11519 122.265 3.11519C121.338 3.11519 120.831 3.7922 120.831 4.83029C120.831 5.77811 121.506 6.18433 122.223 6.50027C123.784 7.08701 123.995 8.07997 123.995 8.75698C123.995 10.1561 123.067 11.104 121.801 11.104Z" fill="#727176"/>
<path id="Vector_24" d="M125.471 11.0137V2.75409H126.104V11.0137H125.471Z" fill="#727176"/>
<path id="Vector_25" d="M129.52 3.25056V11.0137H128.887V3.25056H127.284V2.75409H131.165V3.25056H129.52Z" fill="#727176"/>
<path id="Vector_26" d="M134.581 2.12226H134.244L135.045 0.49744C135.383 0.271768 135.72 0.271768 135.804 0.49744L134.581 2.12226ZM134.792 4.42412C134.581 3.7471 134.539 3.47629 134.539 3.47629H134.497C134.497 3.47629 134.455 3.7471 134.244 4.42412L133.232 7.76405H135.762L134.792 4.42412ZM136.774 11.0137L135.931 8.21539H133.105L132.219 11.0137H131.629L134.286 2.79928H134.792L137.449 11.0137H136.774Z" fill="#727176"/>
<path id="Vector_27" d="M140.191 3.07006C139.727 3.07006 139.389 3.16032 139.136 3.29573V6.95161C139.263 6.99674 139.6 7.04188 139.938 7.04188C141.372 7.04188 142.047 6.31972 142.047 5.05596C142.047 3.70193 141.414 3.07006 140.191 3.07006ZM142.047 11.0137L139.178 7.08701H139.136V11.0137H138.504V3.07006C138.799 2.84438 139.432 2.61871 140.233 2.61871C141.793 2.61871 142.679 3.47627 142.679 5.01084C142.679 6.54541 141.667 7.40295 140.064 7.35781V7.40295L142.806 11.0137H142.047Z" fill="#727176"/>
<path id="Vector_28" d="M144.155 11.0137V2.75409H144.788V11.0137H144.155Z" fill="#727176"/>
<path id="Vector_29" d="M148.921 3.11519C147.319 3.11519 146.897 5.05596 146.897 6.86133C146.897 8.62157 147.234 10.6075 148.921 10.6075C150.609 10.6075 150.946 8.66671 150.946 6.86133C150.946 5.05596 150.566 3.11519 148.921 3.11519ZM148.921 11.104C147.023 11.104 146.264 9.25345 146.264 6.86133C146.264 4.51435 147.023 2.61871 148.921 2.61871C150.862 2.61871 151.579 4.51435 151.579 6.86133C151.579 9.25345 150.862 11.104 148.921 11.104Z" fill="#727176"/>
<path id="Vector_30" d="M22.7271 2.6639C22.7271 12.9996 21.6305 24.3284 19.9434 22.6584C18.4672 21.2592 13.2794 14.1731 13.4903 11.8713C13.7012 9.56944 22.7271 0.407181 22.7271 2.6639Z" fill="#BF0411"/>
<path id="Vector_31" d="M23.4863 2.6639C23.4863 12.9996 24.5829 24.3284 26.27 22.6584C27.7462 21.2592 32.934 14.1731 32.7231 11.8713C32.5122 9.56944 23.4863 0.407181 23.4863 2.6639Z" fill="#991517"/>
<path id="Vector_32" d="M23.4863 50.9576C23.4863 40.6218 24.5829 29.2931 26.27 30.9631C27.7462 32.3623 32.934 39.4483 32.7231 41.7502C32.5122 44.052 23.4863 53.2143 23.4863 50.9576Z" fill="#991517"/>
<path id="Vector_33" d="M22.7271 50.9576C22.7271 40.6218 21.6305 29.2931 19.9434 30.9631C18.4672 32.3623 13.2794 39.4483 13.4903 41.7502C13.7012 44.052 22.7271 53.2143 22.7271 50.9576Z" fill="#BF0411"/>
<path id="Vector_34" d="M0.541846 27.2169C10.2004 27.2169 20.7869 28.3904 19.2264 30.1958C17.9189 31.7755 11.297 37.327 9.146 37.1013C6.99496 36.8757 -1.56702 27.2169 0.541846 27.2169Z" fill="#991517"/>
<path id="Vector_35" d="M0.541846 26.4045C10.2004 26.4045 20.7869 25.231 19.2264 23.4257C17.9189 21.846 11.297 16.2944 9.146 16.5201C6.99496 16.7458 -1.56702 26.4045 0.541846 26.4045Z" fill="#BF0411"/>
<path id="Vector_36" d="M45.6716 26.4045C36.013 26.4045 25.4265 25.231 26.987 23.4257C28.2945 21.846 34.9164 16.2944 37.0674 16.5201C39.2184 16.7458 47.7804 26.4045 45.6716 26.4045Z" fill="#BF0411"/>
<path id="Vector_37" d="M45.6716 27.2169C36.013 27.2169 25.4265 28.3904 26.987 30.1958C28.2945 31.7755 34.9164 37.327 37.0674 37.1013C39.2184 36.8757 47.7804 27.2169 45.6716 27.2169Z" fill="#991517"/>
</g>
</svg>
