<svg width="149" height="55" viewBox="0 0 149 55" fill="none" xmlns="http://www.w3.org/2000/svg">
<g id="Group 8">
<g id="Grupo 143">
<path id="Caminho 12" d="M9.09626 33.4756H4.66321V17.9626H0.380371V13.9561H13.4898V17.9868H9.09626V33.4756Z" fill="#000099"/>
<path id="Caminho 13" d="M10.2027 26.2213C10.1597 25.2257 10.3218 24.2318 10.6788 23.3014C11.0359 22.371 11.5802 21.5239 12.2782 20.8125C12.9762 20.1012 13.8128 19.5409 14.7363 19.1663C15.6598 18.7916 16.6504 18.6108 17.6467 18.6348C21.8429 18.6348 24.8066 21.4089 24.8066 26.6007C24.8066 26.956 24.8308 27.1489 24.8066 27.4779H14.5645C14.7237 28.2475 15.1586 28.9325 15.7873 29.4039C16.4161 29.8754 17.1955 30.101 17.9789 30.0382C18.627 29.9777 19.2514 29.7632 19.7999 29.4127C20.3484 29.0621 20.8052 28.5856 21.1324 28.0228C21.1324 28.0228 23.7639 29.5404 24.5698 30.0382C23.8824 31.2248 22.8873 32.2037 21.6895 32.8715C20.4918 33.5393 19.1359 33.8711 17.7651 33.832C13.2838 33.832 10.1994 31.105 10.1994 26.2213M17.5962 22.3332C16.9551 22.3007 16.3219 22.4871 15.8007 22.8619C15.2794 23.2367 14.9011 23.7775 14.7278 24.3957H20.2519C20.1222 23.7946 19.7849 23.2585 19.2993 22.8813C18.8136 22.5042 18.2107 22.3101 17.5962 22.3332Z" fill="#000099"/>
<path id="Caminho 14" d="M37.2964 19.9463C33.6484 17.3148 25.8656 18.6646 25.8656 24.8882V33.4231H30.3469V25.4813C30.3469 23.727 31.2953 22.636 32.7175 22.636C34.0201 22.636 34.6056 23.1952 34.6911 24.545C34.6846 24.6754 34.6802 24.807 34.6802 24.9408V33.4758H39.1615V25.5329C39.1615 23.7785 40.1099 22.6875 41.532 22.6875C42.9542 22.6875 43.5233 23.3509 43.5233 24.9901V33.5207H47.9563V23.5154C47.9563 18.7172 41.1582 17.3532 37.292 19.943" fill="#000099"/>
<path id="Caminho 15" d="M57.0069 18.6611C55.0153 18.5854 53.0722 19.2873 51.5889 20.6184C50.1055 21.9495 49.1981 23.8055 49.0586 25.7937H49.0432V26.1391C49.0432 26.1906 49.0432 26.2422 49.0432 26.2948C49.0432 26.3474 49.0432 26.3935 49.0432 26.4428V40.6378H53.4763V33.2179C54.5471 33.7349 55.7213 34.0023 56.9104 33.9997C57.9426 34.0465 58.9736 33.8845 59.9417 33.5232C60.9097 33.1619 61.7948 32.609 62.5439 31.8974C63.2931 31.1858 63.8909 30.3303 64.3015 29.3822C64.712 28.434 64.9269 27.4127 64.9333 26.3795C64.9396 25.3463 64.7373 24.3224 64.3384 23.3692C63.9396 22.4161 63.3523 21.5533 62.612 20.8326C61.8716 20.1119 60.9934 19.548 60.0299 19.1749C59.0663 18.8018 58.0374 18.627 57.0047 18.6611M56.9576 29.8276C56.1031 29.8505 55.2712 29.5518 54.6265 28.9905C53.9818 28.4293 53.5713 27.6465 53.4763 26.797V25.8968C53.5535 25.0305 53.9609 24.2271 54.614 23.6528C55.2671 23.0785 56.116 22.7772 56.985 22.8113C57.9156 22.8145 58.8068 23.1872 59.4625 23.8475C60.1183 24.5078 60.4849 25.4015 60.4817 26.3321C60.4785 27.2626 60.1057 28.1538 59.4454 28.8096C58.7852 29.4653 57.8914 29.8319 56.9609 29.8287" fill="#000099"/>
<path id="Caminho 16" d="M65.6536 26.2686C65.6567 25.2388 65.8674 24.2201 66.2731 23.2736C66.6788 22.327 67.2711 21.4719 68.0147 20.7593C68.7582 20.0468 69.6377 19.4914 70.6007 19.1264C71.5637 18.7614 72.5904 18.5943 73.6194 18.6349C74.651 18.6028 75.6784 18.779 76.6403 19.1531C77.6021 19.5271 78.4787 20.0913 79.2175 20.8119C79.9563 21.5324 80.5423 22.3946 80.9402 23.3468C81.3382 24.299 81.54 25.3217 81.5337 26.3537C81.5273 27.3857 81.3129 28.4059 80.9033 29.3531C80.4936 30.3004 79.8972 31.1553 79.1495 31.8667C78.4019 32.5782 77.5185 33.1315 76.5521 33.4937C75.5857 33.8559 74.5562 34.0195 73.5252 33.9746C71.4642 33.981 69.4835 33.1766 68.0107 31.7349C66.538 30.2933 65.6913 28.3303 65.6536 26.2697M73.5953 22.7851C73.1345 22.7835 72.678 22.8727 72.2517 23.0476C71.8254 23.2224 71.4377 23.4796 71.1107 23.8043C70.7838 24.129 70.524 24.5149 70.3462 24.94C70.1685 25.3651 70.0761 25.821 70.0745 26.2818C70.073 26.7426 70.1621 27.1991 70.337 27.6254C70.5119 28.0517 70.769 28.4394 71.0937 28.7664C71.4184 29.0933 71.8043 29.3531 72.2294 29.5309C72.6545 29.7086 73.1104 29.801 73.5712 29.8026C74.5018 29.8058 75.3955 29.4392 76.0558 28.7834C76.7161 28.1276 77.0888 27.2365 77.092 26.3059C77.0952 25.3753 76.7286 24.4816 76.0728 23.8213C75.4171 23.161 74.5259 22.7883 73.5953 22.7851Z" fill="#000099"/>
</g>
<g id="Grupo 139">
<path id="Caminho 84" d="M143.39 19.4791C145.085 21.1348 146.132 23.3416 146.342 25.7013C146.552 28.061 145.912 30.4181 144.537 32.3474C137.263 42.6093 121.962 40.3209 105.064 31.0316C101.812 36.7815 101.324 42.5446 104.547 47.9371C105.769 49.9247 107.586 51.4771 109.74 52.3745C111.895 53.2719 114.276 53.4687 116.549 52.937C113.141 54.351 109.319 54.3974 105.878 53.0664C107.878 53.8331 110.023 54.1483 112.159 53.9892C114.296 53.8302 116.37 53.2009 118.235 52.1464L141.421 41.5962C143.367 40.5602 145.023 39.0555 146.241 37.2182C147.458 35.3809 148.199 33.269 148.395 31.0736C148.591 28.8782 148.236 26.6686 147.363 24.6447C146.49 22.6208 145.126 20.8465 143.395 19.4824" fill="#0BD964"/>
<path id="Caminho 85" d="M104.72 47.936C101.493 42.5392 101.985 36.7794 105.238 31.0295C108.527 25.2181 114.63 19.42 122.586 14.0165C119.585 8.51442 115.089 5.05175 108.887 4.48816C106.551 4.25281 104.201 4.77186 102.182 5.96921C100.163 7.16657 98.5803 8.97926 97.6664 11.1416C97.4397 12.1251 97.3256 13.1312 97.3264 14.1404V40.2728C97.306 43.4885 98.4269 46.6072 100.49 49.0742L100.504 49.0917C100.589 49.1926 100.675 49.292 100.762 49.3899L100.794 49.425C100.875 49.5164 100.959 49.6071 101.044 49.697L101.091 49.7463C101.17 49.8296 101.251 49.9122 101.333 49.9941L101.395 50.0555C101.474 50.1286 101.553 50.2043 101.632 50.2825L101.709 50.3527C101.782 50.4258 101.859 50.4948 101.939 50.5599L102.03 50.6388C102.103 50.7024 102.177 50.7653 102.25 50.8274L102.359 50.9141C102.432 50.9718 102.505 51.0292 102.579 51.0862L102.699 51.1805L102.909 51.3373L103.042 51.4338L103.244 51.5741L103.393 51.6761L103.585 51.8022L103.75 51.9118L103.932 52.0215L104.114 52.1311L104.284 52.2276L104.484 52.3373L104.64 52.4195L104.859 52.5292L104.995 52.596C105.076 52.6366 105.159 52.6761 105.241 52.7145L105.35 52.7649C105.443 52.8066 105.534 52.8482 105.627 52.8888L105.706 52.9217C105.81 52.9656 105.914 53.0094 106.019 53.0511L106.052 53.0642C109.562 54.3528 113.43 54.2626 116.877 52.812C114.595 53.368 112.196 53.1969 110.017 52.3226C107.837 51.4483 105.985 49.9146 104.72 47.936Z" fill="#0BAAE3"/>
<path id="Caminho 86" d="M144.653 32.3989C146.025 30.4669 146.664 28.1092 146.456 25.7486C146.247 23.3879 145.204 21.1788 143.514 19.5175C142.894 19.0221 142.234 18.5787 141.541 18.1918L118.381 2.42781C109.958 -2.26621 99.6411 2.54733 97.6642 11.1623C98.5724 8.99768 100.151 7.18163 102.169 5.98137C104.186 4.7811 106.536 4.25998 108.871 4.49467C121.982 5.68873 127.474 19.8903 127.29 38.969C134.693 39.7584 140.8 37.8451 144.653 32.3901" fill="#0B6CD9"/>
</g>
</g>
</svg>
